<svg width="122" height="122" viewBox="0 0 122 122" fill="none" xmlns="http://www.w3.org/2000/svg">
<path d="M92.1355 56.7642V47.9097C92.1355 44.9072 89.8066 42.4654 86.8641 42.2286L78.6412 27.866C77.8791 26.5376 76.6486 25.5882 75.1763 25.194C73.7109 24.8024 72.1785 25.008 70.8669 25.7714L42.6781 42.1825H37.7272C34.5686 42.1825 32 44.751 32 47.9097V82.2728C32 85.4314 34.5685 88 37.7272 88H86.4083C89.5669 88 92.1355 85.4315 92.1355 82.2728V73.4182C93.7985 72.8252 94.9991 71.2508 94.9991 69.3866V60.7959C94.9991 58.9317 93.7985 57.3573 92.1355 56.7642ZM83.5367 42.1825H71.0571L80.4169 36.7332L83.5367 42.1825ZM78.9942 34.2482L65.3659 42.1825H59.713L77.5807 31.7796L78.9942 34.2482ZM72.3084 28.2462C72.9558 27.8673 73.7122 27.7666 74.4352 27.9596C75.1665 28.1554 75.7761 28.628 76.1551 29.2893L76.158 29.2946L54.022 42.1825H48.3694L72.3084 28.2462ZM89.2718 82.2728C89.2718 83.8513 87.9869 85.1363 86.4083 85.1363H37.7272C36.1487 85.1363 34.8637 83.8513 34.8637 82.2728V47.9097C34.8637 46.3311 36.1487 45.0462 37.7272 45.0462H86.4083C87.9869 45.0462 89.2718 46.3311 89.2718 47.9097V56.5005H80.6811C75.9438 56.5005 72.0903 60.354 72.0903 65.0912C72.0903 69.8285 75.9438 73.682 80.6811 73.682H89.2718V82.2728ZM92.1355 69.3866C92.1355 70.1766 91.4938 70.8185 90.7037 70.8185H80.6811C77.5225 70.8185 74.9538 68.25 74.9538 65.0912C74.9538 61.9327 77.5224 59.364 80.6811 59.364H90.7037C91.4936 59.364 92.1355 60.0058 92.1355 60.7959V69.3866Z" fill="#4553C7"/>
<path d="M80.6814 62.2277C79.1029 62.2277 77.8179 63.5127 77.8179 65.0912C77.8179 66.6698 79.1029 67.9548 80.6814 67.9548C82.26 67.9548 83.545 66.6698 83.545 65.0912C83.5451 63.5127 82.2601 62.2277 80.6814 62.2277Z" fill="#4553C7"/>
</svg>
