<svg width="483" height="348" viewBox="0 0 483 348" fill="none" xmlns="http://www.w3.org/2000/svg">
<g clip-path="url(#clip0)">
<path opacity="0.3" fill-rule="evenodd" clip-rule="evenodd" d="M309.65 310.557C309.65 310.557 273.961 215.679 350.269 215.509C414.17 215.17 376.951 159.768 428.276 150.45C475.012 141.809 487.079 203.48 455.978 216.526C445.229 221.12 436.454 229.35 431.199 239.766C425.944 250.181 424.548 262.111 427.256 273.453C433.544 299.206 418.929 326.144 309.65 310.557Z" fill="#FFD85A"/>
<path opacity="0.5" fill-rule="evenodd" clip-rule="evenodd" d="M440.002 174.847C439.702 162.047 436.507 149.479 430.655 138.082C430.655 138.082 430.485 137.743 430.485 138.082C436.215 150.019 439.011 163.144 438.643 176.372L437.113 178.574H436.943L436.094 179.591L430.485 186.876C430.995 173.492 424.707 159.938 418.759 149.772L415.02 143.842C415.02 143.842 414.51 142.995 414.17 144.351C421.988 158.921 429.975 174 428.786 188.909C424.707 194.331 420.458 199.583 416.379 204.835C416.37 203.185 416.199 201.539 415.869 199.922C412.47 183.657 401.764 169.425 390.887 157.227C390.887 157.227 389.697 155.871 389.697 157.057L391.397 159.091L397.855 167.731L398.365 168.578C406.862 179.76 414 192.467 415.36 206.191L401.594 223.472C401.905 220.546 401.962 217.598 401.764 214.662C401.594 213.476 401.254 212.29 401.084 211.104C400.358 207.726 399.45 204.389 398.365 201.108C398.365 201.108 395.305 193.823 392.756 189.418C390.297 185.092 387.513 180.957 384.429 177.05C384.429 177.05 383.409 175.525 383.069 177.558L384.089 178.744C393.436 192.976 400.404 209.579 400.574 224.828L391.227 236.518C388.337 221.1 380.35 207.038 370.832 195.348C370.832 195.348 370.323 194.67 370.153 195.686C379.67 208.393 387.318 222.795 390.037 238.043L377.291 254.138C376.755 246.806 375.27 239.574 372.872 232.621C369.882 224.54 366.006 216.813 361.315 209.579L356.557 203.141C356.557 203.141 355.537 201.447 355.197 203.311C354.857 205.174 359.616 210.257 359.616 210.257L360.635 211.612C368.453 224.15 374.401 238.043 375.761 252.783C375.761 253.63 375.931 254.816 375.931 255.663L363.695 271.25C359.493 249.481 350.559 228.894 337.522 210.935C337.522 210.935 336.502 209.41 336.333 210.426C349.304 229.172 358.218 250.406 362.505 272.775L352.648 285.312C352.138 283.279 351.798 281.585 351.798 281.585C344.66 260.238 329.874 241.94 312.709 226.861H311.35V227.877C328.175 242.787 342.451 260.915 349.419 282.263C349.419 282.263 350.438 284.635 351.288 287.176L337.012 305.644L330.724 314.115C330.724 314.115 328.175 318.181 325.626 322.756C325.626 322.756 324.096 324.619 326.305 324.111C328.515 323.603 330.384 319.198 332.594 316.826C334.803 314.454 339.222 307.846 343.98 301.747L352.138 290.904L361.145 291.751C371.816 292.22 382.438 293.465 392.926 295.478C406.795 298.391 420.183 303.239 432.695 309.879H433.204C413.149 299.006 391.151 292.156 368.453 289.718H367.773C364.001 289.183 360.197 288.9 356.387 288.87L353.498 289.209L364.544 274.808L366.924 275.147L376.611 274.808C376.611 274.808 382.559 274.469 387.658 274.639C406.012 275.147 423.857 280.23 440.682 287.515H441.702C421.478 278.197 399.554 272.097 376.781 272.267L366.924 272.606L366.074 272.944L376.611 259.052C398.195 261.932 419.948 260.746 442.382 272.267H443.401V271.758C432.042 265.263 419.51 261.06 406.522 259.39C397.175 258.374 387.488 258.543 377.97 257.696L391.057 240.754L398.365 241.94C413.823 243.022 429.076 246.097 443.741 251.089H445.101C444.396 250.498 443.59 250.038 442.722 249.733C426.459 243.605 409.285 240.226 391.906 239.737L401.764 227.2L414.85 229.233C426.067 230.758 436.943 232.621 446.97 237.026H447.82C447.377 236.396 446.796 235.875 446.121 235.501C439.78 232.519 433.104 230.301 426.236 228.894L416.889 227.538C412.131 227.03 407.372 226.522 402.613 226.352C406.862 220.592 411.281 215.001 415.7 209.41H416.549C416.549 209.41 422.498 210.765 426.406 211.951C437.793 215.34 449.69 218.22 459.887 224.15H460.736V223.472C451.305 217.833 441.12 213.555 430.485 210.765C426.104 209.17 421.534 208.145 416.889 207.716C419.608 204.497 422.158 201.108 424.707 197.72H425.047C434.394 196.195 444.081 197.211 453.429 199.075C463.286 200.987 472.954 203.765 482.32 207.377L483 207.038C482.366 206.521 481.683 206.067 480.961 205.683C466.855 199.583 451.729 195.009 437.283 195.009C433.521 195.011 429.767 195.351 426.066 196.025L438.473 179.93C452.919 175.694 468.894 177.05 482.49 180.946C482.49 180.946 484.53 180.269 481.47 179.252C473.932 176.591 466.013 175.16 458.017 175.017C451.914 175.062 445.848 175.975 440.002 177.727L457.337 154.347L458.017 153.499C458.017 153.499 458.697 152.483 456.828 152.652L440.002 174.847Z" fill="#FBE69E"/>
<path fill-rule="evenodd" clip-rule="evenodd" d="M242.86 296.664C242.86 296.664 270.732 241.093 245.579 220.423C227.224 205.174 211.759 202.633 222.296 183.488C235.382 159.26 211.249 126.053 179.128 133.846C150.406 140.793 152.786 178.913 165.022 190.943C177.259 202.972 167.911 217.034 159.414 229.063C150.916 241.093 130.522 284.635 173.69 304.119C216.857 323.603 242.86 296.664 242.86 296.664Z" fill="#F9EFCB"/>
<g opacity="0.4">
<path fill-rule="evenodd" clip-rule="evenodd" d="M190.515 158.582C181.269 149.694 170.108 143.03 157.884 139.098C157.884 139.098 157.544 138.929 157.714 139.268C170.256 143.658 181.561 150.978 190.685 160.615H190.855L191.195 163.326H191.025V164.682H191.195C191.535 167.731 192.044 170.781 192.384 173.831C183.207 164.004 169.271 158.752 157.884 155.871L151.086 154.347C151.086 154.347 150.067 154.008 150.746 155.194C166.552 159.938 182.867 165.19 192.724 176.541C193.574 183.149 194.424 189.757 195.104 196.534L191.365 193.315C177.429 184.166 159.754 181.794 143.269 180.777C143.269 180.777 141.569 180.608 142.419 181.455L144.968 181.794L155.845 183.318H156.695C170.631 185.352 184.737 189.079 195.273 198.058C196.293 205.4 197.143 212.686 197.823 219.914C196.062 217.626 194.069 215.525 191.874 213.646L188.815 211.443C185.909 209.585 182.902 207.889 179.808 206.36C175.81 204.726 171.725 203.312 167.572 202.125C162.72 200.767 157.779 199.748 152.786 199.075C152.786 199.075 151.086 198.736 152.276 200.43L153.805 200.769C170.461 204.158 187.286 210.935 198.163 221.609C198.673 226.522 199.182 231.435 199.862 236.349C186.776 227.538 171.14 223.303 156.185 221.609C156.185 221.609 155.335 221.609 156.015 222.456C171.65 224.828 187.286 229.572 200.032 238.382C200.882 245.159 201.562 251.936 202.411 258.713C196.85 253.916 190.679 249.871 184.057 246.684C176.231 243.067 168.021 240.339 159.584 238.551L151.596 237.196C151.596 237.196 149.727 236.857 150.746 238.212L158.904 240.076L160.603 240.415C174.879 243.803 188.985 249.394 200.372 258.882L202.581 260.746C203.431 267.353 204.111 273.961 204.961 280.569C186.266 268.031 165.192 259.221 143.608 256.341C143.608 256.341 141.909 255.833 142.419 256.68C164.91 260.76 186.282 269.537 205.131 282.432L207.17 298.189L203.941 296.156C183.717 286.16 160.264 283.449 137.49 284.974L136.301 285.821L137.15 286.499C159.584 285.313 182.527 288.023 202.581 298.189L207.34 300.391L210.569 323.772L212.099 334.107C212.099 334.107 213.288 338.851 214.478 343.934C214.478 343.934 214.818 346.306 216.007 344.442C217.197 342.578 215.498 338.004 215.328 334.785C215.328 334.785 213.798 323.772 212.608 315.979C212.099 311.574 211.419 307.168 210.739 302.594C212.608 301.069 215.498 298.867 217.707 296.834C225.708 289.809 234.106 283.247 242.86 277.18C254.767 269.492 267.695 263.504 281.269 259.39L281.608 259.052C259.763 265.609 239.393 276.309 221.616 290.565L221.106 290.904C218.042 293.114 215.197 295.61 212.608 298.358L210.569 300.73C209.719 294.8 208.87 288.701 208.19 282.771L210.059 281.246L216.687 274.3C219.092 271.511 221.645 268.853 224.335 266.337C237.761 253.799 254.076 244.82 271.071 238.043L271.751 237.365C250.847 244.989 231.133 256.171 214.988 272.267L208.36 279.552L207.85 280.399C207 274.639 206.32 268.878 205.64 263.118C222.805 249.903 237.251 233.807 261.384 226.014L262.064 225.505L261.724 225.166C249.008 228.437 237.095 234.26 226.714 242.278C219.406 248.039 212.778 255.155 205.301 261.254L202.751 239.907L208.7 235.501C220.596 225.844 233.172 216.695 247.278 210.088L248.128 209.071C247.25 209.173 246.391 209.402 245.579 209.749C229.799 217.006 215.284 226.729 202.581 238.551L200.542 222.625L211.419 214.832C220.256 207.885 229.434 201.616 239.631 197.72L239.97 196.872C239.23 196.782 238.479 196.84 237.761 197.042C231.149 199.322 224.864 202.455 219.067 206.36L211.419 211.951C207.68 215.001 203.941 218.051 200.372 221.27C199.522 214.154 198.672 207.207 197.653 200.092L198.333 199.583C198.333 199.583 203.601 196.364 207.17 194.501C217.707 188.74 228.074 182.471 239.631 179.422L240.14 178.744L239.631 178.405C228.893 181.049 218.591 185.214 209.039 190.773C205.131 192.976 200.712 195.009 197.483 198.228C196.973 193.992 196.463 189.757 195.783 185.69H195.953C201.829 178.155 208.957 171.68 217.027 166.545C225.367 160.935 234.181 156.06 243.369 151.975L243.709 151.466C242.905 151.473 242.104 151.587 241.33 151.805C226.884 157.566 212.948 164.851 202.751 175.017C200.14 177.699 197.753 180.588 195.613 183.657C194.764 176.88 193.744 170.273 192.894 163.496C200.202 150.28 212.438 139.945 224.675 133.168C224.675 133.168 225.865 131.305 222.806 132.83C215.594 136.257 208.993 140.836 203.261 146.384C198.935 150.64 195.32 155.559 192.554 160.954C191.195 151.297 189.835 141.64 188.306 131.982V130.966C188.306 130.966 188.136 129.611 186.946 131.305C188.136 140.284 189.325 149.433 190.515 158.582Z" fill="#FFD85A"/>
</g>
<path fill-rule="evenodd" clip-rule="evenodd" d="M66.2807 148.756C66.2807 148.756 65.7709 128.763 94.6625 126.053C123.554 123.342 140.209 138.421 145.648 165.02C151.086 191.62 141.739 195.178 165.872 203.141C190.005 211.104 181.167 235.671 167.232 236.687C167.232 236.687 203.091 263.796 152.446 284.804C101.8 305.813 56.4237 291.751 49.7956 267.523C49.7956 267.523 11.8965 251.936 22.0936 222.286C32.2906 192.637 59.1429 208.224 58.4631 189.248C57.7832 170.273 51.1551 161.124 66.2807 148.756Z" fill="#3D5F95"/>
<path fill-rule="evenodd" clip-rule="evenodd" d="M109.788 168.748C120.325 172.814 124.404 170.95 124.744 172.136C127.293 183.488 126.953 198.567 122.364 200.092C119.582 200.998 116.858 202.073 114.207 203.311C112.507 204.497 113.357 210.088 113.867 212.629C115.736 220.931 120.835 219.575 128.143 222.456C135.451 225.336 148.027 227.2 158.054 256.171C164.047 274.644 166.638 294.045 165.702 313.437L91.4335 308.524L77.4975 253.291C77.4975 253.291 17.8448 266.167 13.766 257.188C7.81772 243.803 60.8424 206.53 63.9015 202.972C66.9606 199.414 78.1773 197.55 72.0591 208.055C65.9409 218.559 58.2931 229.91 58.2931 229.91C58.2931 229.91 65.7709 226.183 74.0985 222.795C79.3058 220.418 84.6387 218.325 90.0738 216.526C94.3226 215.34 85.8251 202.633 85.8251 202.633C85.8251 202.633 93.4729 200.769 89.564 184.843C87.8645 177.897 79.537 161.124 79.537 161.124C79.537 161.124 80.7265 155.533 85.8251 154.347C99.0812 151.297 98.9113 164.512 109.788 168.748Z" fill="#D1DFF5"/>
<path fill-rule="evenodd" clip-rule="evenodd" d="M120.75 220.984C120.75 220.984 121.154 245.076 87.6733 217.799C87.6733 217.799 85.6553 232.621 84.6356 240.923C82.0941 248.856 84.1284 250.449 78.906 257.616L88.8843 321.57L154.825 314.454C154.825 314.454 151.256 282.263 142.249 254.308C136.81 237.196 121.94 216.748 120.75 220.984Z" fill="white"/>
<mask id="mask0" mask-type="alpha" maskUnits="userSpaceOnUse" x="13" y="153" width="153" height="161">
<path fill-rule="evenodd" clip-rule="evenodd" d="M109.788 168.748C120.325 172.814 124.404 170.95 124.744 172.136C127.293 183.488 126.953 198.567 122.364 200.092C119.582 200.998 116.858 202.073 114.207 203.311C112.507 204.497 113.357 210.088 113.867 212.629C115.736 220.931 120.835 219.575 128.143 222.456C135.451 225.336 148.027 227.2 158.054 256.171C164.047 274.644 166.638 294.045 165.702 313.437L91.4335 308.524L77.4976 253.291C77.4976 253.291 17.8448 266.167 13.766 257.188C7.81773 243.803 60.8424 206.53 63.9015 202.972C66.9606 199.414 78.1773 197.55 72.0591 208.055C65.9409 218.559 58.2931 229.91 58.2931 229.91C58.2931 229.91 65.7709 226.183 74.0985 222.795C79.3058 220.418 84.6387 218.325 90.0738 216.526C94.3226 215.34 85.8251 202.633 85.8251 202.633C85.8251 202.633 93.4729 200.769 89.564 184.843C87.8645 177.897 79.537 161.124 79.537 161.124C79.537 161.124 80.7265 155.533 85.8251 154.347C99.0812 151.297 98.9113 164.512 109.788 168.748Z" fill="#D1DFF5"/>
</mask>
<g mask="url(#mask0)">
<path opacity="0.7" d="M93.9827 195.009C89.1957 195.009 85.3152 191.444 85.3152 187.046C85.3152 182.648 89.1957 179.083 93.9827 179.083C98.7696 179.083 102.65 182.648 102.65 187.046C102.65 191.444 98.7696 195.009 93.9827 195.009Z" fill="#7E9FD4"/>
<path opacity="0.7" d="M126.953 190.773C122.166 190.773 118.286 187.208 118.286 182.81C118.286 178.412 122.166 174.847 126.953 174.847C131.74 174.847 135.621 178.412 135.621 182.81C135.621 187.208 131.74 190.773 126.953 190.773Z" fill="#7E9FD4"/>
</g>
<path fill-rule="evenodd" clip-rule="evenodd" d="M115.736 189.756C113.357 191.79 112.167 191.281 108.599 190.604C105.03 189.926 104.18 194.839 107.919 196.703C111.658 198.567 116.586 198.228 118.456 193.823C120.325 189.418 117.946 187.893 115.736 189.756Z" fill="white"/>
<path fill-rule="evenodd" clip-rule="evenodd" d="M338.542 28.633C343.131 39.6457 348.569 59.1296 345.51 78.6135C345.51 78.6135 336.672 86.5765 327.665 87.7625C327.665 87.7625 319.337 91.3204 319.847 98.2669C325.845 100.313 331.428 103.411 336.333 107.416C343.131 113.685 360.975 159.938 370.493 162.479C380.01 165.021 389.867 135.371 393.776 123.342C397.685 111.313 402.783 120.97 402.783 133.677C402.783 146.384 398.025 203.141 374.062 197.72C350.099 192.298 334.463 166.037 334.463 166.037C334.463 166.037 334.633 236.01 335.653 258.035C336.672 280.06 337.352 306.999 337.352 306.999L262.234 306.66C262.234 306.66 263.594 206.021 261.044 193.992C258.495 181.963 252.207 119.445 255.776 110.127C259.345 100.808 290.446 93.0147 290.446 93.0147C290.446 93.0147 293.335 82.8492 285.007 77.4276C276.68 72.0059 255.436 51.1666 280.929 28.4636C287.217 22.7031 329.365 5.76055 338.542 28.633Z" fill="#D1DFF5"/>
<path d="M234.022 231.266H387.488V348.017H234.022V231.266Z" fill="#597DB6"/>
<path opacity="0.7" d="M314.239 74.8861C309.358 74.8861 305.402 71.2451 305.402 66.7536C305.402 62.2622 309.358 58.6212 314.239 58.6212C319.12 58.6212 323.076 62.2622 323.076 66.7536C323.076 71.2451 319.12 74.8861 314.239 74.8861Z" fill="#5B84C6"/>
<mask id="mask1" mask-type="alpha" maskUnits="userSpaceOnUse" x="254" y="17" width="149" height="290">
<path opacity="0.7" fill-rule="evenodd" clip-rule="evenodd" d="M338.542 28.633C343.131 39.6457 348.569 59.1296 345.51 78.6135C345.51 78.6135 336.672 86.5765 327.665 87.7625C327.665 87.7625 319.337 91.3204 319.847 98.2669C325.845 100.313 331.428 103.411 336.333 107.416C343.131 113.685 360.975 159.938 370.493 162.479C380.01 165.021 389.867 135.371 393.776 123.342C397.685 111.313 402.783 120.97 402.783 133.677C402.783 146.384 398.025 203.141 374.062 197.72C350.099 192.298 334.463 166.037 334.463 166.037C334.463 166.037 334.633 236.01 335.653 258.035C336.673 280.061 337.352 306.999 337.352 306.999L262.234 306.66C262.234 306.66 263.594 206.022 261.044 193.992C258.495 181.963 252.207 119.445 255.776 110.127C259.345 100.808 290.446 93.0147 290.446 93.0147C290.446 93.0147 293.335 82.8492 285.007 77.4276C276.68 72.0059 255.436 51.1666 280.929 28.4636C287.217 22.7031 329.365 5.76055 338.542 28.633Z" fill="white"/>
</mask>
<g mask="url(#mask1)">
<path opacity="0.7" d="M348.229 70.6505C343.348 70.6505 339.392 67.0095 339.392 62.5181C339.392 58.0266 343.348 54.3856 348.229 54.3856C353.11 54.3856 357.067 58.0266 357.067 62.5181C357.067 67.0095 353.11 70.6505 348.229 70.6505Z" fill="#5B84C6"/>
</g>
<path fill-rule="evenodd" clip-rule="evenodd" d="M336.673 69.4645C334.293 71.4976 332.934 71.1588 329.365 70.4811C325.796 69.8034 324.776 74.5473 328.685 76.5804C332.594 78.6135 337.522 77.9358 339.562 73.5307C341.601 69.1257 338.882 67.6008 336.673 69.4645Z" fill="white"/>
<path fill-rule="evenodd" clip-rule="evenodd" d="M364.544 152.822L342.281 180.269L335.483 172.136L337.862 257.018L259.515 259.052C259.515 259.052 261.384 209.749 260.704 200.769C260.025 191.79 251.867 132.321 253.057 119.614C254.246 106.907 255.096 107.246 260.535 104.366C265.973 101.486 287.557 93.3534 287.557 93.3534C287.557 93.3534 292.145 107.585 306.761 109.11C321.377 110.635 323.246 98.775 323.246 98.775C323.246 98.775 334.803 102.672 339.562 111.143C344.32 119.614 360.975 149.772 364.544 152.822Z" fill="#3D5F95"/>
<path fill-rule="evenodd" clip-rule="evenodd" d="M110.128 206.191C111.148 203.819 99.4213 197.72 96.1922 197.042C92.9631 196.364 92.6232 201.447 91.2636 202.463C89.904 203.48 81.9163 195.517 78.5173 186.876C78.5173 186.876 85.4853 185.013 85.1454 182.471C84.8055 179.93 78.5173 169.426 75.7981 169.764C73.0789 170.103 65.7709 173.661 69.6798 184.504C73.5887 195.348 90.5838 210.935 90.5838 210.935C90.5838 210.935 103.5 220.931 110.128 206.191Z" fill="#5B84C6"/>
<path fill-rule="evenodd" clip-rule="evenodd" d="M60.8424 207.038C60.8424 207.038 71.2093 191.959 75.798 181.963C75.798 181.963 77.1575 179.93 75.9679 184.165C74.7782 188.401 73.0787 193.484 73.0787 193.484C73.0787 193.484 78.1773 184.165 79.5369 181.285C80.8965 178.405 79.5368 186.537 75.1181 193.823C75.1181 193.823 80.3866 185.182 82.596 182.132C84.8053 179.083 82.2561 186.707 76.9876 195.009C76.9876 195.009 81.4063 188.909 84.2955 185.69C87.1846 182.471 87.6945 184.843 78.6871 196.703C77.6034 197.802 76.789 199.135 76.3078 200.6C76.3078 200.6 78.8571 198.228 81.4063 199.414C81.457 199.592 81.4705 199.778 81.446 199.962C81.4216 200.145 81.3596 200.322 81.2641 200.481C81.1686 200.64 81.0414 200.777 80.8905 200.885C80.7395 200.993 80.5681 201.069 80.3866 201.108C78.2598 201.928 76.5069 203.495 75.458 205.513C74.0123 208.139 71.7442 210.222 69 211.443C60.3325 215.34 60.8424 207.038 60.8424 207.038Z" fill="#AAC2E9"/>
<path fill-rule="evenodd" clip-rule="evenodd" d="M392.246 120.462C393.606 117.073 400.234 111.143 405.502 104.705C409.649 99.3722 413.344 93.7052 416.549 87.7624C417.569 86.0682 419.438 87.0847 418.249 89.6261C415.699 95.2172 410.771 104.705 410.771 104.705C410.771 104.705 418.079 92.8452 420.798 88.9484C423.517 85.0516 423.687 87.9318 422.497 90.3038C420.037 95.9158 416.898 101.207 413.15 106.06L418.928 98.9445C421.818 95.2172 424.877 90.9815 425.387 91.3204C425.896 91.6592 425.896 93.5229 424.367 95.8949C421.557 100.346 418.433 104.592 415.02 108.602C415.02 108.602 426.576 95.7254 427.256 96.4031C427.936 97.0808 426.236 100.639 416.379 111.651C414.769 113.065 413.392 114.723 412.3 116.565C412.3 116.565 416.039 114.193 418.928 116.904C418.896 117.404 418.692 117.878 418.352 118.248C418.013 118.618 417.556 118.861 417.059 118.937C415.36 119.106 412.81 120.123 409.751 123.681C406.692 127.239 404.993 129.441 400.404 130.288C399.109 130.593 397.754 130.531 396.493 130.109C395.231 129.687 394.113 128.921 393.265 127.9C392.417 126.878 391.872 125.64 391.692 124.325C391.512 123.011 391.704 121.673 392.246 120.462Z" fill="#AAC2E9"/>
<path d="M142.928 301.577H241.16V310.371H142.928V301.577Z" fill="#5B84C6"/>
<path fill-rule="evenodd" clip-rule="evenodd" d="M200.032 308.693L234.702 224.997L349.928 230.758L310.33 308.185L200.032 308.693Z" fill="#5B84C6"/>
<path fill-rule="evenodd" clip-rule="evenodd" d="M206.32 309.202L240.99 225.505L356.217 231.435L316.618 308.693L206.32 309.202Z" fill="#82A2D4"/>
<path opacity="0.7" d="M271.326 280.984C269.323 277.065 271.768 271.823 276.785 269.274C281.803 266.725 287.495 267.835 289.497 271.754C291.5 275.672 289.056 280.915 284.038 283.464C279.02 286.013 273.329 284.902 271.326 280.984Z" fill="#F2B42A"/>
<path d="M15.2955 306.83H437.283V319.147H15.2955V306.83Z" fill="#82A2D4"/>
<path fill-rule="evenodd" clip-rule="evenodd" d="M256.116 107.755C256.116 107.755 271.921 115.887 276.17 139.437C280.419 162.987 289.256 179.591 296.224 183.827C296.224 183.827 329.534 190.095 335.653 189.587C341.771 189.079 348.399 202.125 336.333 204.158C324.266 206.191 282.628 211.104 269.542 204.158C256.456 197.211 231.473 122.495 256.116 107.755Z" fill="#D1DFF5"/>
<path fill-rule="evenodd" clip-rule="evenodd" d="M260.704 105.383C260.704 105.383 271.411 109.957 279.059 143.503L290.276 174L251.867 181.455C251.867 181.455 230.793 109.618 260.704 105.383Z" fill="#3D5F95"/>
<path fill-rule="evenodd" clip-rule="evenodd" d="M271.751 27.6163C271.751 27.6163 269.372 18.9756 280.249 14.5705C291.126 10.1655 306.761 17.7896 315.768 10.6738C324.776 3.55788 341.261 -5.76051 349.589 4.40502C357.916 14.5705 349.759 28.4635 340.071 28.294C340.071 28.294 350.098 30.3271 347.889 38.9678C345.68 47.6085 311.18 53.369 300.473 35.071C300.473 35.071 294.864 41.5092 297.074 49.4722C299.283 57.4352 302.342 62.518 297.924 66.7536L286.707 50.6582C286.707 50.6582 279.059 50.3193 281.098 58.7906C283.138 67.2619 294.185 69.1256 294.185 69.1256C294.185 69.1256 300.643 77.5968 290.956 87.2541C290.956 87.2541 277.869 82.3408 268.692 66.7536C265.463 61.1626 257.645 25.4138 271.751 27.6163Z" fill="#3D5F95"/>
<path fill-rule="evenodd" clip-rule="evenodd" d="M295.045 72.7594L295.534 72.9016L295.439 73.227L312.436 81.6247L332.809 84.0881L332.862 82.6918L312.436 80.032L295.329 71.7832L295.045 72.7594Z" fill="#3D5F95"/>
<path fill-rule="evenodd" clip-rule="evenodd" d="M329.546 82.7134C329.449 82.2008 329.456 81.674 329.566 81.1642C329.677 80.6543 329.889 80.1717 330.19 79.7451C330.491 79.3185 330.875 78.9565 331.319 78.6806C331.763 78.4047 332.258 78.2205 332.775 78.1389L339.233 76.9529C339.747 76.8639 340.273 76.8766 340.781 76.9902C341.289 77.1038 341.77 77.3161 342.197 77.615C342.623 77.9139 342.985 78.2936 343.264 78.7323C343.543 79.1711 343.733 79.6603 343.822 80.172C343.911 80.6837 343.899 81.208 343.785 81.7148C343.671 82.2216 343.458 82.7011 343.158 83.1259C342.858 83.5507 342.477 83.9124 342.037 84.1905C341.597 84.4686 341.106 84.6575 340.593 84.7465L334.135 85.9324C333.102 86.0831 332.051 85.8333 331.197 85.2344C330.344 84.6356 329.753 83.7334 329.546 82.7134Z" fill="#3D5F95"/>
<path d="M264.373 65.6148C261.35 52.9625 267.485 40.6666 278.076 38.1512C288.668 35.6357 299.705 43.8532 302.728 56.5055C305.752 69.1578 299.617 81.4537 289.025 83.9692C278.434 86.4846 267.397 78.2671 264.373 65.6148Z" fill="#5B84C6"/>
<path d="M266.118 65.6503C263.551 54.9095 268.28 44.5851 276.68 42.5901C285.08 40.5951 293.971 47.6849 296.537 58.4257C299.104 69.1665 294.375 79.4909 285.975 81.486C277.575 83.481 268.685 76.3911 266.118 65.6503Z" fill="#3D5F95"/>
<path d="M270.38 65.0823C268.727 58.1645 271.902 51.4841 277.471 50.1614C283.041 48.8386 288.896 53.3743 290.55 60.2921C292.203 67.2099 289.028 73.8902 283.458 75.213C277.888 76.5358 272.033 72.0001 270.38 65.0823Z" fill="#D1DFF5"/>
<path fill-rule="evenodd" clip-rule="evenodd" d="M309.14 13.5541C307.869 13.9119 306.552 14.0831 305.232 14.0624C300.5 14.1331 295.961 15.9431 292.485 19.1451C286.537 24.9056 284.837 36.0877 286.197 40.6622L276.85 39.4762C276.85 39.4762 275.32 26.0916 282.798 16.7732C286.367 12.5375 303.532 9.6573 309.14 13.5541Z" fill="#D1DFF5"/>
<path fill-rule="evenodd" clip-rule="evenodd" d="M285.347 39.4762C282.458 41.5093 288.236 40.3233 293.675 44.7284C295.99 46.6336 297.869 49.0099 299.188 51.6981C300.507 54.3862 301.235 57.3243 301.323 60.3155C301.323 60.3155 301.323 50.4889 295.034 44.3896C292.469 41.7811 289.134 40.0593 285.517 39.4762H285.347Z" fill="#3D5F95"/>
<path fill-rule="evenodd" clip-rule="evenodd" d="M281.608 53.7079C278.379 56.2493 282.458 54.2161 285.177 58.4518C287.897 62.6874 288.746 72.1753 282.118 73.5307C282.118 73.5307 281.268 74.0389 283.308 73.7001C285.347 73.3612 291.636 62.6874 285.347 55.9104C284.224 54.9859 282.963 54.2428 281.608 53.7079Z" fill="#597DB6"/>
<path fill-rule="evenodd" clip-rule="evenodd" d="M299.623 13.8928L297.754 14.2317C288.746 16.0953 282.798 27.108 282.798 36.7653L283.308 37.7818C283.308 37.7818 285.857 22.3641 292.145 17.2813C294.287 15.8961 296.641 14.8661 299.113 14.2317H299.623V13.8928Z" fill="#3D5F95"/>
<path fill-rule="evenodd" clip-rule="evenodd" d="M144.628 27.1081C144.606 25.5364 144.897 23.976 145.484 22.5175C146.072 21.059 146.945 19.7315 148.052 18.6122C149.159 17.4929 150.478 16.6041 151.933 15.9975C153.387 15.391 154.948 15.0787 156.525 15.0789H226.374C227.951 15.0787 229.512 15.391 230.967 15.9975C232.421 16.6041 233.74 17.4929 234.847 18.6122C235.954 19.7315 236.827 21.059 237.415 22.5175C238.002 23.976 238.294 25.5364 238.271 27.1081V46.7614L253.227 59.1295L238.271 60.9932V70.1422C238.293 71.7219 238.004 73.2906 237.418 74.7586C236.832 76.2266 235.962 77.5653 234.857 78.698C233.753 79.8308 232.435 80.7356 230.979 81.3606C229.524 81.9856 227.959 82.3187 226.374 82.3408H156.525C154.94 82.3187 153.375 81.9856 151.92 81.3606C150.464 80.7356 149.147 79.8308 148.042 78.698C146.937 77.5653 146.067 76.2266 145.481 74.7586C144.896 73.2906 144.606 71.7219 144.628 70.1422V27.1081Z" fill="#D1DFF5"/>
<path fill-rule="evenodd" clip-rule="evenodd" d="M3.05176e-05 72.514C0.0439835 71.0676 0.373535 69.644 0.969696 68.3246C1.56585 67.0052 2.41696 65.8159 3.47446 64.8246C4.53194 63.8333 5.77505 63.0595 7.13269 62.5474C8.49033 62.0354 9.93589 61.795 11.3867 61.8402H78.0074C79.4583 61.795 80.9039 62.0354 82.2615 62.5474C83.6191 63.0595 84.8622 63.8333 85.9197 64.8246C86.9772 65.8159 87.8284 67.0052 88.4246 68.3246C89.0208 69.644 89.3502 71.0676 89.3942 72.514V110.465C89.2616 113.357 87.9927 116.08 85.8618 118.046C83.7308 120.011 80.9093 121.062 78.0074 120.97H56.4237L59.3129 141.301L39.2587 120.97H11.3867C8.48492 121.062 5.66335 120.011 3.53244 118.046C1.40153 116.08 0.132561 113.357 3.05176e-05 110.465V72.514Z" fill="#D1DFF5"/>
<path d="M157.544 29.48H220.426V33.4445H157.544V29.48Z" fill="white"/>
<path d="M10.7071 72.6835H73.5889V76.648H10.7071V72.6835Z" fill="white"/>
<path d="M157.544 40.3232H220.426V44.2878H157.544V40.3232Z" fill="white"/>
<path d="M10.7071 83.5269H73.5889V87.4914H10.7071V83.5269Z" fill="white"/>
<path d="M157.544 50.9969H220.426V54.9615H157.544V50.9969Z" fill="white"/>
<path d="M10.7071 94.2006H73.5889V98.1651H10.7071V94.2006Z" fill="white"/>
<path d="M157.544 62.1792H220.426V66.1438H157.544V62.1792Z" fill="white"/>
<path d="M10.7071 105.383H73.5889V109.347H10.7071V105.383Z" fill="white"/>
</g>
<defs>
<clipPath id="clip0">
<rect width="483" height="348" transform="matrix(-1 0 0 1 483 0)" fill="white"/>
</clipPath>
</defs>
</svg>
