<svg width="122" height="122" viewBox="0 0 122 122" fill="none" xmlns="http://www.w3.org/2000/svg">
<path d="M85.8198 27.3498C85.5677 27.0977 85.225 26.9576 84.8684 26.9614C84.5131 26.9639 84.1729 27.1027 83.9174 27.3498L64.7306 46.5358L64.6773 46.5899L64.6505 46.6168C64.6241 46.657 64.5838 46.6973 64.557 46.7372C64.557 46.7506 64.5435 46.7506 64.5435 46.764C64.5167 46.8039 64.5028 46.8311 64.4764 46.871C64.4626 46.8844 64.4626 46.8982 64.4496 46.9112C64.4361 46.9515 64.4231 46.9784 64.4093 47.0186C64.4093 47.0321 64.3959 47.0321 64.3959 47.0451L60.9791 57.3487C60.8155 57.8282 60.9401 58.3597 61.3013 58.7154C61.5542 58.965 61.8961 59.1047 62.2518 59.1038C62.3974 59.1009 62.5421 59.0787 62.681 59.0367L72.9577 55.6069C72.9707 55.6069 72.9707 55.6069 72.9842 55.5935C73.0265 55.5814 73.0676 55.5633 73.1046 55.5402C73.115 55.5386 73.1247 55.5339 73.1318 55.5264C73.1717 55.5 73.2254 55.4731 73.2656 55.4459C73.3055 55.419 73.3458 55.3787 73.386 55.3523C73.3999 55.3393 73.4129 55.3393 73.4129 55.3255C73.4263 55.312 73.4532 55.2986 73.467 55.2722L92.666 36.0724C92.9173 35.8215 93.0582 35.4817 93.0582 35.1277C93.0582 34.7732 92.9173 34.433 92.666 34.183L85.8198 27.3498ZM66.2584 49.966L70.0502 53.7578L64.369 55.6468L66.2584 49.966ZM72.529 52.4448L67.5714 47.4876L84.8684 30.1902L89.8256 35.1474L72.529 52.4448Z" fill="#4553C7"/>
<path d="M82.6572 52.0026C81.918 52.0047 81.3194 52.6033 81.3173 53.3425V78.3841C81.311 80.6012 79.5156 82.3966 77.2977 82.4037H41.6319C39.4149 82.3966 37.6186 80.6012 37.6123 78.3841V42.7175C37.6186 40.5005 39.4149 38.7046 41.6319 38.6979H66.6728C67.4132 38.6979 68.0127 38.098 68.0127 37.3581C68.0127 36.6181 67.4132 36.0182 66.6728 36.0182H41.6319C37.9324 36.0199 34.9343 39.0184 34.9326 42.7175V78.3841C34.9343 82.0832 37.9324 85.0818 41.6319 85.083H77.2977C80.9973 85.0818 83.9958 82.0832 83.9971 78.3841V53.3425C83.995 52.6033 83.3963 52.0047 82.6572 52.0026Z" fill="#4553C7"/>
</svg>
