<svg width="1046" height="656" viewBox="0 0 1046 656" fill="none" xmlns="http://www.w3.org/2000/svg">
<g clip-path="url(#clip0)">
<g opacity="0.3">
<path opacity="0.3" d="M846.149 411.761C845.977 411.756 845.808 411.707 845.656 411.618L651.064 285.458C647.467 283.135 645.493 279.971 645.493 276.521C645.493 273.071 647.467 269.961 651.064 267.584L777.794 185.36C780.739 183.465 782.362 180.981 782.362 178.407C782.362 175.833 780.771 173.366 777.794 171.454L563.209 32.4782C559.574 30.4156 555.558 29.3409 551.485 29.3409C547.412 29.3409 543.396 30.4156 539.76 32.4782L467.792 79.149C464.847 81.0616 463.223 83.5283 463.223 86.1022C463.223 88.6762 464.815 91.1429 467.792 93.0555L574.766 162.409C578.363 164.733 580.337 167.897 580.337 171.346C580.337 174.796 578.363 177.906 574.766 180.284L414.814 283.957C407.794 288.497 396.38 288.497 389.344 283.957L283.15 215.032C283.036 214.96 282.937 214.863 282.857 214.747C282.777 214.632 282.719 214.499 282.685 214.358C282.651 214.217 282.642 214.069 282.659 213.924C282.676 213.779 282.718 213.639 282.784 213.513C282.917 213.255 283.136 213.066 283.392 212.989C283.649 212.912 283.923 212.953 284.153 213.102L390.442 281.955C394.075 284.026 398.092 285.105 402.166 285.105C406.241 285.105 410.258 284.026 413.891 281.955L573.858 178.282C576.803 176.369 578.411 173.903 578.411 171.329C578.411 168.755 576.819 166.27 573.858 164.375L466.852 94.9859C463.271 92.6622 461.297 89.5163 461.297 86.0486C461.297 82.5809 463.271 79.4886 466.852 77.1113L538.821 30.4584C545.841 25.9182 557.255 25.9182 564.291 30.4584L778.86 169.666C782.442 171.99 784.416 175.154 784.416 178.604C784.416 182.053 782.442 185.181 778.844 187.541L652.115 269.764C649.17 271.677 647.562 274.144 647.562 276.718C647.562 279.292 649.154 281.776 652.115 283.671L846.722 409.83C846.909 409.957 847.055 410.148 847.136 410.376C847.218 410.604 847.231 410.856 847.173 411.092C847.115 411.329 846.99 411.539 846.817 411.688C846.643 411.838 846.431 411.92 846.213 411.921L846.149 411.761Z" fill="white"/>
<path opacity="0.3" d="M799.794 317.168C799.575 317.166 799.363 317.084 799.189 316.935C799.016 316.785 798.891 316.576 798.833 316.339C798.776 316.102 798.788 315.851 798.87 315.623C798.951 315.395 799.097 315.203 799.284 315.077L988.176 192.617C992.236 189.99 994.544 186.558 994.544 182.965C994.544 179.372 992.315 175.94 988.176 173.313L807.021 55.8583C798.249 50.192 784.002 50.192 775.183 55.8583L734.749 82.1162C734.636 82.213 734.506 82.2819 734.368 82.318C734.229 82.3541 734.086 82.3568 733.946 82.3258C733.807 82.2948 733.675 82.2309 733.559 82.1383C733.443 82.0457 733.346 81.9264 733.274 81.7885C733.203 81.6506 733.158 81.4972 733.143 81.3384C733.129 81.1797 733.144 81.0192 733.189 80.8676C733.233 80.716 733.306 80.5769 733.402 80.4593C733.498 80.3417 733.616 80.2485 733.746 80.1857L774.244 53.9278C783.556 47.8862 798.695 47.8862 808.008 53.9278L989.179 171.382C993.955 174.421 996.454 178.532 996.454 182.965C996.454 187.398 993.875 191.509 989.179 194.566L800.287 317.007C800.138 317.109 799.968 317.165 799.794 317.168Z" fill="white"/>
<path opacity="0.3" d="M349.992 656C345.003 656.108 340.072 654.785 335.665 652.157L76.8416 484.385C72.8301 481.776 70.6174 478.254 70.6174 474.447C70.6174 470.64 72.8301 467.118 76.8416 464.509L165.111 407.31C173.071 402.18 185.806 402.18 193.765 407.31L357.012 513.128C364.366 517.9 376.321 517.9 383.676 513.128L603.928 370.345C607.303 368.146 609.165 365.304 609.165 362.337C609.165 359.37 607.303 356.528 603.928 354.347L538.852 312.145C531.498 307.391 519.543 307.391 512.188 312.145L384.711 394.815C376.751 399.945 364.016 399.945 356.057 394.815L177.878 279.309C170.524 274.537 158.569 274.537 151.214 279.309L-38.9834 402.645C-39.0958 402.722 -39.2208 402.772 -39.3511 402.794C-39.4813 402.816 -39.6141 402.809 -39.7417 402.772C-39.8693 402.735 -39.989 402.67 -40.0939 402.581C-40.1988 402.492 -40.2867 402.379 -40.3524 402.251C-40.4852 401.993 -40.5212 401.686 -40.4525 401.398C-40.3839 401.109 -40.2162 400.864 -39.9862 400.714L150.227 277.379C158.187 272.249 170.922 272.249 178.881 277.379L357.012 392.885C364.35 397.64 376.321 397.64 383.66 392.885L511.233 310.161C519.192 305.031 531.927 305.031 539.887 310.161L604.979 352.345C608.99 354.955 611.203 358.494 611.203 362.284C611.203 366.073 608.99 369.612 604.979 372.222L384.711 515.076C376.751 520.188 364.016 520.188 356.057 515.076L192.794 409.222C185.439 404.45 173.484 404.468 166.13 409.222L77.8604 466.421C74.4856 468.62 72.6231 471.462 72.6231 474.429C72.6231 477.396 74.4856 480.238 77.8604 482.419L336.652 650.191C344.006 654.963 355.961 654.963 363.316 650.191L698.199 433.121C698.312 433.024 698.442 432.955 698.58 432.919C698.719 432.883 698.863 432.88 699.002 432.911C699.142 432.942 699.274 433.006 699.389 433.099C699.505 433.191 699.602 433.311 699.674 433.449C699.745 433.586 699.79 433.74 699.805 433.899C699.82 434.057 699.804 434.218 699.76 434.369C699.715 434.521 699.642 434.66 699.546 434.778C699.45 434.895 699.332 434.989 699.202 435.051L364.319 652.157C359.912 654.785 354.981 656.108 349.992 656Z" fill="white"/>
<path opacity="0.3" d="M597.609 572.919C597.436 572.922 597.266 572.873 597.116 572.776L541.4 536.704C541.181 536.549 541.025 536.304 540.963 536.022C540.901 535.74 540.939 535.441 541.068 535.19C541.198 534.938 541.409 534.752 541.658 534.671C541.907 534.591 542.174 534.621 542.403 534.756L598.118 570.845C598.23 570.919 598.328 571.017 598.407 571.133C598.485 571.249 598.542 571.382 598.574 571.523C598.607 571.664 598.614 571.811 598.596 571.956C598.578 572.1 598.535 572.239 598.469 572.364C598.383 572.535 598.258 572.676 598.107 572.774C597.955 572.871 597.784 572.921 597.609 572.919Z" fill="white"/>
<path opacity="0.3" d="M445.458 176.101C445.283 176.104 445.111 176.054 444.96 175.957C444.809 175.859 444.684 175.718 444.598 175.547C444.465 175.289 444.429 174.982 444.498 174.693C444.566 174.405 444.734 174.159 444.964 174.01L518.19 126.499C518.303 126.402 518.433 126.333 518.572 126.297C518.71 126.261 518.854 126.258 518.994 126.289C519.133 126.32 519.265 126.384 519.381 126.477C519.497 126.569 519.594 126.689 519.665 126.827C519.737 126.964 519.782 127.118 519.796 127.277C519.811 127.435 519.796 127.596 519.751 127.748C519.707 127.899 519.634 128.038 519.538 128.156C519.441 128.273 519.324 128.367 519.193 128.429L445.887 175.958C445.755 176.039 445.608 176.088 445.458 176.101Z" fill="white"/>
<path opacity="0.3" d="M993.62 316.167C993.446 316.164 993.275 316.108 993.127 316.006L896.978 253.677C896.847 253.614 896.729 253.521 896.633 253.404C896.537 253.286 896.464 253.147 896.42 252.995C896.375 252.844 896.36 252.683 896.374 252.524C896.389 252.366 896.434 252.212 896.506 252.074C896.577 251.936 896.674 251.817 896.79 251.725C896.906 251.632 897.038 251.568 897.177 251.537C897.317 251.506 897.46 251.509 897.599 251.545C897.737 251.581 897.867 251.65 897.98 251.747L994.13 314.076C994.243 314.148 994.342 314.245 994.422 314.36C994.502 314.476 994.561 314.608 994.595 314.75C994.629 314.891 994.637 315.038 994.62 315.183C994.603 315.328 994.561 315.468 994.496 315.595C994.406 315.767 994.278 315.909 994.125 316.009C993.971 316.11 993.798 316.164 993.62 316.167Z" fill="white"/>
<path opacity="0.3" d="M446.158 196.961H413.19C412.927 196.961 412.674 196.845 412.487 196.637C412.299 196.43 412.192 196.148 412.187 195.853V174.403C412.185 174.255 412.21 174.107 412.259 173.969C412.309 173.832 412.383 173.706 412.476 173.601C412.57 173.496 412.681 173.413 412.804 173.358C412.927 173.302 413.058 173.275 413.19 173.277H446.158C446.424 173.277 446.679 173.396 446.867 173.607C447.055 173.818 447.161 174.104 447.161 174.403V195.853C447.157 196.146 447.055 196.427 446.874 196.639C446.682 196.848 446.425 196.963 446.158 196.961ZM414.145 194.709H445.203V175.547H414.177L414.145 194.709Z" fill="white"/>
<path opacity="0.3" d="M840.784 150.094H807.785C807.519 150.094 807.264 149.975 807.076 149.764C806.888 149.553 806.782 149.266 806.782 148.967V127.518C806.778 127.372 806.802 127.226 806.851 127.091C806.901 126.955 806.975 126.833 807.068 126.731C807.253 126.519 807.505 126.397 807.769 126.392H840.784C841.05 126.392 841.305 126.51 841.493 126.722C841.681 126.933 841.787 127.219 841.787 127.518V148.967C841.779 149.263 841.671 149.544 841.484 149.754C841.298 149.963 841.048 150.085 840.784 150.094ZM808.772 147.841H839.797V128.68H808.772V147.841Z" fill="white"/>
<path opacity="0.3" d="M357.872 606.326C351.719 606.444 345.641 604.789 340.219 601.518C335.316 598.336 332.609 594.046 332.609 589.435C332.609 584.823 335.316 580.497 340.219 577.334C349.945 571.024 365.784 571.024 375.526 577.334C380.429 580.515 383.136 584.823 383.136 589.435C383.136 594.046 380.429 598.372 375.526 601.518C370.104 604.789 364.026 606.444 357.872 606.326ZM357.872 574.885C352.068 574.755 346.331 576.293 341.205 579.353C336.955 582.106 334.599 585.717 334.599 589.506C334.599 593.296 336.955 596.888 341.205 599.659C350.391 605.611 365.338 605.611 374.523 599.659C378.79 596.888 381.13 593.296 381.146 589.506C381.162 585.717 378.79 582.106 374.523 579.353C369.404 576.291 363.672 574.752 357.872 574.885Z" fill="white"/>
<path opacity="0.3" d="M296.187 566.341C290.039 566.478 283.962 564.847 278.533 561.604C273.63 558.44 270.94 554.132 270.94 549.521C270.94 544.909 273.63 540.583 278.533 537.42C288.276 531.11 304.115 531.11 313.857 537.42C318.76 540.583 321.45 544.891 321.45 549.503C321.45 554.114 318.76 558.44 313.857 561.586C308.425 564.838 302.342 566.475 296.187 566.341ZM296.187 534.899C290.388 534.767 284.655 536.305 279.536 539.368C275.27 542.121 272.93 545.731 272.93 549.521C272.93 553.31 275.27 556.903 279.536 559.673C288.721 565.626 303.669 565.626 312.854 559.673C317.12 556.903 319.461 553.31 319.461 549.521C319.461 545.731 317.12 542.138 312.854 539.368C307.729 536.307 301.991 534.769 296.187 534.899Z" fill="white"/>
<path opacity="0.3" d="M234.518 526.444C228.386 526.541 222.333 524.887 216.928 521.636C212.025 518.454 209.318 514.147 209.318 509.535C209.318 504.923 212.025 500.598 216.928 497.452C226.654 491.142 242.509 491.142 252.235 497.452C257.138 500.616 259.845 504.923 259.845 509.535C259.845 514.147 257.138 518.472 252.235 521.636C246.792 524.91 240.692 526.566 234.518 526.444ZM234.518 495.003C228.72 494.879 222.989 496.417 217.867 499.472C213.601 502.242 211.245 505.835 211.245 509.624C211.245 513.414 213.601 517.024 217.867 519.777C227.052 525.729 242 525.729 251.185 519.777C255.435 517.024 257.791 513.414 257.791 509.624C257.791 505.835 255.435 502.242 251.185 499.472C246.064 496.388 240.328 494.82 234.518 494.914V495.003Z" fill="white"/>
<path opacity="0.3" d="M172.849 486.387C166.701 486.52 160.625 484.89 155.195 481.651C150.276 478.469 147.585 474.179 147.585 469.549C147.585 464.92 150.276 460.612 155.179 457.466C164.921 451.156 180.76 451.156 190.502 457.466C195.405 460.648 198.096 464.938 198.096 469.549C198.096 474.161 195.405 478.487 190.502 481.651C185.071 484.886 178.996 486.516 172.849 486.387ZM172.849 454.928C167.045 454.806 161.31 456.344 156.182 459.397C151.915 462.167 149.575 465.76 149.575 469.549C149.575 473.339 151.915 476.95 156.182 479.702C165.367 485.655 180.314 485.672 189.5 479.702C193.766 476.95 196.106 473.339 196.106 469.549C196.106 465.76 193.766 462.167 189.5 459.397C184.376 456.348 178.646 454.816 172.849 454.946V454.928Z" fill="white"/>
<path opacity="0.3" d="M190.009 459.557C189.832 459.554 189.658 459.5 189.505 459.4C189.351 459.3 189.224 459.157 189.133 458.986C189.068 458.859 189.026 458.719 189.009 458.574C188.992 458.429 189.001 458.281 189.035 458.14C189.069 457.999 189.127 457.867 189.207 457.751C189.287 457.635 189.386 457.538 189.5 457.466L229.838 431.315C229.951 431.219 230.081 431.15 230.219 431.114C230.358 431.078 230.502 431.075 230.641 431.106C230.781 431.137 230.913 431.201 231.028 431.293C231.144 431.386 231.241 431.505 231.313 431.643C231.384 431.781 231.429 431.934 231.444 432.093C231.459 432.252 231.443 432.413 231.399 432.564C231.354 432.716 231.281 432.855 231.185 432.972C231.089 433.09 230.971 433.183 230.841 433.246L190.503 459.397C190.354 459.499 190.183 459.555 190.009 459.557Z" fill="white"/>
<path opacity="0.3" d="M411.137 621.627C410.959 621.624 410.785 621.575 410.627 621.484L377.198 599.534C377.084 599.46 376.984 599.361 376.904 599.244C376.825 599.126 376.767 598.991 376.734 598.848C376.702 598.705 376.695 598.556 376.714 598.41C376.734 598.263 376.779 598.123 376.848 597.997C376.912 597.869 376.998 597.757 377.102 597.668C377.205 597.579 377.324 597.514 377.45 597.477C377.576 597.441 377.708 597.433 377.837 597.455C377.966 597.476 378.09 597.527 378.201 597.603L411.63 619.536C411.854 619.691 412.016 619.938 412.081 620.225C412.146 620.512 412.11 620.816 411.98 621.073C411.893 621.238 411.77 621.376 411.623 621.473C411.475 621.57 411.308 621.623 411.137 621.627Z" fill="white"/>
<path opacity="0.3" d="M630.625 594.368H597.609C597.346 594.363 597.095 594.243 596.91 594.032C596.726 593.821 596.622 593.538 596.622 593.242V571.792C596.622 571.497 596.726 571.213 596.91 571.002C597.095 570.792 597.346 570.671 597.609 570.666H630.625C630.888 570.671 631.139 570.792 631.324 571.002C631.508 571.213 631.612 571.497 631.612 571.792V593.242C631.612 593.538 631.508 593.821 631.324 594.032C631.139 594.243 630.888 594.363 630.625 594.368ZM598.612 592.116H629.622V572.919H598.612V592.116Z" fill="white"/>
</g>
<path opacity="0.5" d="M895.176 489.784L629.03 317.311L415.512 456.412C414.99 456.755 414.558 457.246 414.257 457.836C413.956 458.425 413.798 459.093 413.798 459.772C413.798 460.451 413.956 461.119 414.257 461.708C414.558 462.298 414.99 462.789 415.512 463.132L483.962 507.497C461.772 513.074 444.166 526.963 444.166 539.261C444.166 552.041 463.125 558.244 486.509 553.131C502.428 549.664 516.309 541.835 523.536 533.148L670.833 628.652C674.132 630.787 677.873 631.91 681.681 631.91C685.49 631.91 689.231 630.787 692.53 628.652L895.192 496.504C895.717 496.163 896.152 495.672 896.454 495.081C896.757 494.49 896.915 493.82 896.913 493.139C896.912 492.458 896.75 491.789 896.445 491.2C896.14 490.611 895.703 490.122 895.176 489.784Z" fill="#242993"/>
<path d="M560.755 147.591L580.128 189.293L590.65 191.348L594.359 199.32L591.557 213.87L595.776 222.951L599.724 220.627L602.828 227.294L599.167 229.421L605.407 242.863L613.891 237.894L617.059 244.686L615.181 254.41L619.033 262.704L617.473 263.616L622.567 274.555L625.639 272.767L630.845 283.993L633.965 290.678L663.431 304.477L652.956 281.937L587.673 141.442L560.755 147.591Z" fill="#FFD85A"/>
<path d="M589.026 81.8302C588.867 81.5442 588.708 81.2582 588.565 80.9722L587.705 79.3814C587.514 79.0239 587.307 78.6842 587.1 78.3446C586.893 78.005 586.591 77.4509 586.32 77.0219C586.05 76.5929 585.858 76.289 585.62 75.9137C585.381 75.5383 585.126 75.1451 584.872 74.7518C584.617 74.3586 584.362 73.9832 584.092 73.6078L583.375 72.589C583.089 72.1957 582.802 71.8025 582.5 71.4271L581.831 70.5334L580.86 69.3358L580.255 68.6208L579.157 67.3338L578.695 66.8333C578.281 66.3686 577.851 65.9039 577.406 65.457L577.262 65.314C562.665 50.3529 542.989 45.4553 527.055 54.7858C505.58 67.2981 499.069 101.01 512.505 129.949C519.843 145.696 531.607 156.761 544.215 161.605C548.687 163.337 553.381 164.236 558.112 164.268H558.271C558.797 164.268 559.322 164.268 559.863 164.268H560.436L561.805 164.143H562.553L563.795 163.964L564.671 163.803L565.801 163.571L566.772 163.339L567.823 163.053L568.873 162.731C569.192 162.624 569.51 162.534 569.828 162.409C570.147 162.284 570.592 162.123 570.959 161.98L571.834 161.641L573.108 161.033C573.346 160.926 573.569 160.836 573.792 160.711C574.445 160.389 575.097 160.032 575.75 159.656C597.209 147.144 603.719 113.433 590.284 84.5829C589.87 83.5283 589.456 82.6703 589.026 81.8302ZM550.63 105.532C544.342 109.107 536.065 105.335 532.133 96.8628C531.814 96.1657 531.544 95.4507 531.289 94.7357C531.289 94.5748 531.178 94.4139 531.13 94.2352C530.9 93.54 530.709 92.8296 530.557 92.1081C530.013 89.8205 529.913 87.4283 530.265 85.0937C530.616 82.7591 531.411 80.5366 532.594 78.577C533.088 77.8193 533.654 77.1241 534.282 76.5035L534.425 76.3784C534.696 76.1282 534.982 75.8601 535.285 75.6277C535.639 75.3566 536.006 75.1061 536.383 74.8769C542.671 71.1948 550.949 75.0736 554.881 83.5462C558.813 92.0187 556.902 101.85 550.63 105.532Z" fill="#FFD85A"/>
<path d="M566.82 144.034L586.209 185.736L596.731 187.791L600.44 195.763L597.622 210.313L601.841 219.394L605.805 217.07L608.893 223.737L605.247 225.864L611.488 239.306L619.972 234.337L623.124 241.129L621.246 250.853L625.098 259.147L623.554 260.058L628.632 270.998L631.704 269.192L636.926 280.436L640.03 287.121L669.512 300.92L659.037 278.38L593.754 137.885L566.82 144.034Z" fill="#F2B42A"/>
<path d="M537.418 48.7263C515.943 61.2386 509.448 94.9502 522.884 123.8C536.319 152.65 564.623 165.966 586.097 153.382C607.572 140.799 614.082 107.159 600.631 78.3089C587.18 49.4592 558.892 36.1426 537.418 48.7263ZM560.993 99.4546C554.721 103.137 546.444 99.258 542.512 90.7854C538.58 82.3128 540.474 72.4281 546.762 68.8532C553.05 65.2783 561.312 69.0498 565.244 77.5224C569.176 85.995 567.281 95.7724 560.993 99.4546Z" fill="#FFD85A"/>
<path d="M653.895 283.957L646.668 280.686L589.695 158.084L594.184 155.456L653.895 283.957Z" fill="#DD821F"/>
<path d="M594.184 155.456L653.895 283.957L656.458 285.119L595.776 154.526L594.184 155.456Z" fill="#FFD85A"/>
<path d="M593.754 137.885L566.82 144.034L575.511 162.713C582.029 163.759 588.675 162.51 594.534 159.138C596.941 157.717 599.172 155.951 601.172 153.883L593.754 137.885Z" fill="#DD821F"/>
<path d="M575.097 49.5307L554.578 155.527C559.68 157.615 565.108 158.507 570.529 158.151C575.949 157.794 581.247 156.196 586.097 153.454C607.572 140.942 614.082 107.23 600.631 78.3804C595.03 65.9909 586.096 55.8968 575.097 49.5307Z" fill="#DD821F"/>
<path d="M538.882 51.8723C518.713 63.6875 512.584 95.3077 525.224 122.477C537.863 149.647 564.448 162.105 584.633 150.29C604.818 138.475 610.931 106.855 598.291 79.6674C585.652 52.48 559.067 40.0393 538.882 51.8723ZM560.993 99.4547C554.721 103.137 546.444 99.258 542.512 90.7854C538.58 82.3128 540.474 72.4282 546.762 68.8532C553.05 65.2783 561.312 69.0498 565.244 77.5224C569.176 85.995 567.281 95.7725 560.993 99.4547Z" fill="#F9BF30"/>
<path d="M541.477 57.4313C523.568 67.9237 518.156 95.9691 529.347 120.082C540.538 144.195 564.145 155.224 582.038 144.749C599.931 134.274 605.375 106.211 594.168 82.1877C582.961 58.1641 559.37 46.9567 541.477 57.4313ZM560.993 99.4546C554.721 103.137 546.444 99.258 542.512 90.7854C538.58 82.3128 540.474 72.4281 546.762 68.8532C553.05 65.2783 561.312 69.0498 565.244 77.5224C569.176 85.995 567.281 95.7724 560.993 99.4546Z" fill="#F2B42A"/>
<path d="M541.477 57.4313C540.777 57.8424 540.108 58.2893 539.455 58.7361C557.061 50.2635 579.252 61.3458 590.029 84.5293C600.806 107.713 596.206 134.578 579.937 145.857C580.637 145.518 581.354 145.142 582.038 144.749C599.947 134.257 605.375 106.211 594.168 82.1877C582.961 58.1641 559.37 46.9567 541.477 57.4313Z" fill="#FFD85A"/>
<path d="M534.473 121.691C523.33 97.5956 528.71 69.5503 546.603 59.1294C553.305 55.2736 560.998 54.1733 568.348 56.0192C564.024 54.1499 559.4 53.3163 554.773 53.5718C550.145 53.8273 545.617 55.1663 541.477 57.5028C523.568 67.9952 518.156 96.0405 529.347 120.153C536.319 135.15 548.083 145.178 560.293 147.931C549.067 143.116 539.855 133.754 534.473 121.691Z" fill="#DD821F"/>
<path d="M548.481 66.5116C546.176 67.8936 544.262 69.9745 542.957 72.5175C543.956 70.9818 545.258 69.7275 546.762 68.8532C553.034 65.2783 561.312 69.0498 565.244 77.5224C569.176 85.995 567.281 95.8261 560.993 99.5083C554.705 103.19 546.444 99.3116 542.512 90.8391C541.804 89.3364 541.269 87.7387 540.92 86.0844C541.294 88.8044 542.063 91.4371 543.196 93.8777C548.083 104.388 558.351 109.196 566.151 104.603C573.951 100.009 576.307 87.8361 571.42 77.3258C566.533 66.8155 556.281 61.9536 548.481 66.5116Z" fill="#DD821F"/>
<path d="M545.043 65.1174C537.243 69.6933 534.887 81.9017 539.774 92.3941C544.661 102.887 554.912 107.713 562.713 103.119C570.513 98.5251 572.869 86.3346 567.982 75.8422C563.095 65.3498 552.843 60.5594 545.043 65.1174ZM560.962 99.4546C554.69 103.137 546.412 99.258 542.48 90.7854C538.548 82.3128 540.474 72.4281 546.762 68.8532C553.05 65.2783 561.312 69.0498 565.244 77.5224C569.176 85.995 567.281 95.7724 560.993 99.4546H560.962Z" fill="#F9BF30"/>
<path d="M542.973 66.3328C535.189 70.8909 532.801 83.1529 537.704 93.6096C542.607 104.066 552.859 108.91 560.643 104.334C568.427 99.7584 570.799 87.55 565.928 77.0576C561.057 66.5652 550.774 61.7033 542.973 66.3328ZM558.892 100.652C552.62 104.334 544.342 100.456 540.41 92.0008C536.479 83.5461 538.373 73.6972 544.661 70.015C550.949 66.3328 559.226 70.2116 563.158 78.6842C567.09 87.1568 565.212 96.9879 558.924 100.652H558.892Z" fill="#FFD85A"/>
<path d="M545.043 65.1174C537.243 69.6933 534.887 81.9017 539.774 92.3941C544.661 102.887 554.912 107.713 562.713 103.119C570.513 98.5251 572.869 86.3346 567.982 75.8422C563.095 65.3498 552.843 60.5594 545.043 65.1174ZM560.962 99.4546C554.69 103.137 546.412 99.258 542.48 90.7854C538.548 82.3128 540.474 72.4281 546.762 68.8532C553.05 65.2783 561.312 69.0498 565.244 77.5224C569.176 85.995 567.281 95.7724 560.993 99.4546H560.962Z" fill="#F9BF30"/>
<path d="M666.885 299.687L597.67 150.755L601.172 153.865L669.512 300.92L666.885 299.687Z" fill="#DD821F"/>
<path d="M597.614 210.257L591.546 213.813L595.766 222.893L601.835 219.337L597.614 210.257Z" fill="#FFD85A"/>
<path d="M613.891 237.894L623.124 241.129L619.972 234.337L613.891 237.894Z" fill="#DD821F"/>
<path d="M599.724 220.627L605.805 217.07L608.893 223.737L599.724 220.627Z" fill="#DD821F"/>
<path d="M580.128 189.293L586.209 185.736L596.731 187.791L590.65 191.348L580.128 189.293Z" fill="#DD821F"/>
<path d="M569.414 166.27L575.495 162.695L573.904 155.545L565.085 157.208L555.247 152.31L541.429 160.407C542.368 160.836 543.292 161.247 544.247 161.605C548.719 163.337 553.413 164.236 558.144 164.268H558.271C558.797 164.268 559.322 164.268 559.863 164.268H560.436L561.805 164.143H562.553L563.795 163.964L564.671 163.803L565.801 163.571L566.772 163.339L567.823 163.053L569.414 166.27Z" fill="#DD821F"/>
<path d="M669.512 300.92L663.431 304.477L633.965 290.678L640.03 287.121L669.512 300.92Z" fill="#DD821F"/>
<path d="M625.639 272.767L631.705 269.192L634.618 275.448L625.639 272.767Z" fill="#DD821F"/>
<path d="M537.418 48.7263L526.72 55.0003C526.72 55.0003 532.435 53.9278 532.499 53.8921L537.418 48.7263Z" fill="#FFD85A"/>
<path opacity="0.5" d="M455.006 290.285L452.396 290.463L451.504 290.553L449.833 290.731L448.75 290.874L447.333 291.071L446.139 291.268L444.866 291.482L443.608 291.732L442.462 291.965L441.141 292.269L440.138 292.519L438.737 292.876L437.894 293.127L436.381 293.573L435.776 293.77L434.105 294.324H433.914C415.464 300.831 402.936 314.129 403.525 328.822C404.337 348.627 428.708 363.463 457.935 361.962C473.854 361.14 487.942 355.634 497.35 347.573C500.553 344.912 503.33 341.66 505.564 337.956L505.644 337.831C505.867 337.438 506.09 337.045 506.296 336.651L506.519 336.205C506.694 335.865 506.854 335.507 507.013 335.15L507.283 334.56C507.283 334.471 507.283 334.381 507.411 334.274L535.539 332.826L541.779 325.551L549.85 325.14L560.388 331.557L569.558 331.074L569.414 327.5L576.148 327.142L576.291 330.52L589.87 329.823L589.552 321.994L596.413 321.637L603.449 325.927L611.838 325.498V326.928L622.886 326.356L622.774 323.514L634.124 322.942L640.89 322.584L664.927 304.584L642.147 305.764L516.262 312.252L506.488 312.753C499.165 298.578 478.677 289.069 455.006 290.285ZM454.799 326.248C455.038 332.04 448.289 337.098 439.74 337.545H437.878H436.922H436.445C431.399 337.08 427.212 334.918 425.159 331.879C424.77 331.298 424.454 330.661 424.219 329.984V329.841C424.13 329.56 424.056 329.274 423.996 328.983C423.93 328.636 423.887 328.283 423.869 327.929C423.63 322.137 430.38 317.079 438.928 316.632C447.477 316.185 454.576 320.457 454.799 326.248Z" fill="#242993"/>
<path d="M637.308 241.451L672.886 4.50441L670.021 3.16381L674.319 0.393243C674.84 0.0855218 675.427 -0.0540039 676.014 -0.00982751C676.601 0.0343488 677.166 0.260496 677.646 0.643487L961.876 185.038C963.074 185.906 964.046 187.113 964.695 188.538C965.343 189.963 965.645 191.555 965.569 193.154L929.72 431.887C929.672 432.401 929.51 432.893 929.249 433.318C928.987 433.743 928.635 434.087 928.224 434.318L924.021 437.071L923.289 432.674H923.527L641.049 249.566C639.842 248.705 638.86 247.501 638.203 246.075C637.546 244.65 637.237 243.054 637.308 241.451Z" fill="url(#paint0_linear)"/>
<path d="M960.284 191.438L964.964 189.114C965.492 190.341 965.702 191.71 965.569 193.064L929.72 431.888C929.672 432.401 929.51 432.893 929.249 433.318C928.987 433.743 928.635 434.087 928.224 434.318L924.021 437.071L923.289 432.674H923.527L909.201 423.415L960.284 191.438Z" fill="url(#paint1_linear)"/>
<path d="M636.544 252.426L920.789 436.714C922.986 438.126 924.865 437.304 925.247 434.748L961.096 195.942C961.178 194.345 960.881 192.752 960.235 191.326C959.589 189.9 958.617 188.692 957.418 187.827L673.157 3.55709C670.976 2.12711 669.082 2.94935 668.7 5.50543L632.851 244.329C632.764 245.926 633.062 247.52 633.711 248.944C634.361 250.369 635.339 251.571 636.544 252.426Z" fill="#242993"/>
<g opacity="0.51">
<path opacity="0.51" d="M676.882 18.8041L950.876 196.425L916.889 421.341L643.086 243.846L676.882 18.8041Z" fill="#4553C7"/>
</g>
<path d="M457.872 365.573L473.376 374.671L628.919 273.822C630.528 273.008 632.284 272.627 634.048 272.711C635.811 272.795 637.533 273.34 639.075 274.305L907.354 448.225C909.917 446.598 921.681 440.289 921.681 440.289L915.998 456.894C915.692 457.745 915.128 458.448 914.406 458.878L750.522 564.982C748.916 565.805 747.159 566.191 745.395 566.111C743.63 566.03 741.908 565.484 740.366 564.517L465.831 386.54C464.801 385.949 463.986 384.977 463.523 383.787L457.872 365.573Z" fill="url(#paint2_linear)"/>
<path d="M460.259 368.361L741.624 550.682C743.204 551.671 744.969 552.232 746.776 552.319C748.584 552.406 750.385 552.017 752.035 551.183L919.93 442.434C922.588 440.646 922.254 437.679 919.182 435.695L637.865 253.248C636.284 252.261 634.519 251.703 632.711 251.619C630.903 251.535 629.103 251.928 627.454 252.766L459.575 361.622C456.853 363.338 457.187 366.359 460.259 368.361Z" fill="url(#paint3_linear)"/>
<path d="M826.487 511.305V507.837C826.487 507.515 826.311 507.354 826.089 507.497L815.216 514.647C815.094 514.744 814.994 514.873 814.924 515.022C814.855 515.171 814.819 515.337 814.818 515.505V518.973C814.818 519.295 814.993 519.438 815.216 519.295L826.089 512.252C826.222 512.145 826.328 512.002 826.398 511.837C826.467 511.671 826.498 511.488 826.487 511.305Z" fill="#2859CB"/>
<path d="M810.218 521.851V518.383C810.218 518.061 810.043 517.918 809.82 518.061L798.931 525.104C798.81 525.202 798.71 525.331 798.641 525.48C798.572 525.629 798.535 525.794 798.533 525.962V529.43C798.533 529.751 798.708 529.912 798.931 529.769L809.82 522.709C809.942 522.612 810.042 522.483 810.111 522.334C810.181 522.185 810.217 522.019 810.218 521.851Z" fill="#2859CB"/>
<path d="M876.153 432.209L642.338 280.632C641.575 280.131 640.707 279.867 639.823 279.867C638.939 279.867 638.071 280.131 637.308 280.632L554.053 334.721C553.782 334.899 553.557 335.154 553.401 335.459C553.245 335.765 553.163 336.111 553.163 336.464C553.163 336.816 553.245 337.162 553.401 337.468C553.557 337.774 553.782 338.028 554.053 338.206L787.756 489.712C788.519 490.213 789.387 490.477 790.271 490.477C791.155 490.477 792.023 490.213 792.787 489.712L876.153 435.695C876.424 435.517 876.648 435.262 876.805 434.956C876.961 434.651 877.043 434.304 877.043 433.952C877.043 433.6 876.961 433.253 876.805 432.948C876.648 432.642 876.424 432.387 876.153 432.209Z" fill="#ADC8FF"/>
<path d="M876.153 435.695L875.309 436.249L642.338 285.137C641.574 284.641 640.706 284.38 639.823 284.38C638.94 284.38 638.073 284.641 637.308 285.137L554.881 338.761L554.053 338.206C553.782 338.028 553.557 337.774 553.401 337.468C553.245 337.162 553.163 336.816 553.163 336.464C553.163 336.111 553.245 335.765 553.401 335.459C553.557 335.154 553.782 334.899 554.053 334.721L637.308 280.632C638.071 280.131 638.939 279.867 639.823 279.867C640.707 279.867 641.575 280.131 642.338 280.632L876.153 432.209C876.424 432.387 876.648 432.642 876.805 432.948C876.961 433.253 877.043 433.6 877.043 433.952C877.043 434.304 876.961 434.651 876.805 434.956C876.648 435.262 876.424 435.517 876.153 435.695Z" fill="#91AFFF"/>
<path d="M631.02 294.342L834.128 426.007L843.154 420.144L640.046 288.479L631.02 294.342Z" fill="#242993"/>
<path d="M608.893 308.695L799.377 432.191L808.403 426.328L617.919 302.832L608.893 308.695Z" fill="#242993"/>
<path d="M594.471 318.044L818.75 463.436L827.776 457.591L603.496 312.181L594.471 318.044Z" fill="#242993"/>
<path d="M580.048 327.392L804.328 472.785L813.37 466.94L589.074 321.529L580.048 327.392Z" fill="#242993"/>
<path d="M565.626 336.741L789.921 482.133L798.947 476.288L574.652 330.878L565.626 336.741Z" fill="#242993"/>
<path d="M846.385 433.961L855.427 439.806L864.453 433.961L855.427 428.098L846.385 433.961Z" fill="#242993"/>
<path d="M814.548 442.005L833.284 454.159L842.31 448.314L823.573 436.16L814.548 442.005Z" fill="#242993"/>
<path d="M633.344 468.888L570.306 428.009C567.838 426.418 567.838 423.826 570.306 422.235L613.43 394.279C614.812 393.495 616.339 393.087 617.887 393.087C619.435 393.087 620.962 393.495 622.344 394.279L685.398 435.159C687.85 436.749 687.85 439.341 685.398 440.932L642.259 468.888C640.877 469.672 639.35 470.08 637.801 470.08C636.253 470.08 634.726 469.672 633.344 468.888Z" fill="url(#paint4_linear)"/>
<path d="M685.383 437.518L622.328 396.657C620.949 395.863 619.421 395.449 617.871 395.449C616.321 395.449 614.793 395.863 613.414 396.657L570.29 424.559C569.616 424.969 569.063 425.59 568.698 426.346C568.045 424.952 568.539 423.379 570.29 422.271L613.414 394.315C614.796 393.531 616.323 393.123 617.871 393.123C619.42 393.123 620.946 393.531 622.328 394.315L685.383 435.194C687.086 436.303 687.579 437.876 686.975 439.27C686.605 438.526 686.052 437.918 685.383 437.518Z" fill="#91AFFF"/>
<g opacity="0.11">
<g opacity="0.11">
<path opacity="0.11" d="M637.547 252.962L918.895 435.284C920.477 436.27 922.242 436.827 924.05 436.911C925.857 436.995 927.657 436.603 929.306 435.766L1097.2 326.91C1099.88 325.122 1099.54 322.173 1096.45 320.171L815.105 137.849C813.525 136.858 811.759 136.298 809.951 136.214C808.142 136.13 806.341 136.525 804.694 137.367L636.799 246.134C634.124 247.868 634.458 250.889 637.547 252.962Z" fill="url(#paint5_linear)"/>
<path opacity="0.11" d="M919.739 285.583L856.7 244.704C854.233 243.113 854.233 240.521 856.7 238.931L899.808 210.975C901.191 210.191 902.717 209.782 904.266 209.782C905.814 209.782 907.341 210.191 908.723 210.975L971.777 251.854C974.229 253.445 974.229 256.037 971.777 257.627L928.669 285.583C927.284 286.368 925.755 286.776 924.204 286.776C922.653 286.776 921.124 286.368 919.739 285.583Z" fill="url(#paint6_linear)"/>
<path opacity="0.11" d="M971.777 254.213L908.723 213.352C907.344 212.558 905.816 212.144 904.266 212.144C902.716 212.144 901.188 212.558 899.808 213.352L856.7 241.29C856.028 241.702 855.476 242.323 855.108 243.077C854.456 241.683 854.965 240.092 856.7 239.002L899.808 211.046C901.19 210.262 902.717 209.854 904.266 209.854C905.814 209.854 907.341 210.262 908.723 211.046L971.777 251.925C973.48 253.016 973.974 254.589 973.369 256.001C973.004 255.244 972.451 254.623 971.777 254.213Z" fill="#91AFFF"/>
<path opacity="0.11" d="M999.492 349.485L765.677 197.908C764.911 197.416 764.044 197.157 763.162 197.157C762.279 197.157 761.412 197.416 760.647 197.908L677.376 251.997C677.086 252.168 676.843 252.425 676.673 252.74C676.504 253.055 676.414 253.416 676.414 253.784C676.414 254.152 676.504 254.513 676.673 254.828C676.843 255.143 677.086 255.4 677.376 255.572L911.079 407.077C911.845 407.57 912.712 407.829 913.594 407.829C914.476 407.829 915.343 407.57 916.109 407.077L999.492 353.042C999.778 352.869 1000.02 352.613 1000.18 352.3C1000.35 351.987 1000.44 351.629 1000.44 351.264C1000.44 350.899 1000.35 350.541 1000.18 350.228C1000.02 349.915 999.778 349.658 999.492 349.485Z" fill="#ADC8FF"/>
<path opacity="0.11" d="M999.492 352.935L998.648 353.489L765.677 202.448C764.911 201.956 764.044 201.697 763.162 201.697C762.279 201.697 761.412 201.956 760.647 202.448L678.219 256.072L677.376 255.536C677.086 255.365 676.843 255.108 676.673 254.793C676.504 254.478 676.414 254.117 676.414 253.749C676.414 253.381 676.504 253.02 676.673 252.705C676.843 252.39 677.086 252.133 677.376 251.961L760.647 197.872C761.412 197.38 762.279 197.121 763.162 197.121C764.044 197.121 764.911 197.38 765.677 197.872L999.492 349.485C999.755 349.666 999.973 349.919 1000.12 350.221C1000.28 350.523 1000.35 350.864 1000.35 351.21C1000.35 351.557 1000.28 351.897 1000.12 352.199C999.973 352.501 999.755 352.755 999.492 352.935Z" fill="#91AFFF"/>
<path opacity="0.11" d="M699.168 248.279L902.865 380.337L894.794 385.556L691.098 253.516L699.168 248.279Z" fill="#242993"/>
<path opacity="0.11" d="M720.627 234.372L914.231 359.888L906.16 365.108L712.556 239.592L720.627 234.372Z" fill="#242993"/>
<path opacity="0.11" d="M928.685 369.255L946.769 380.98L938.698 386.2L920.63 374.474L928.685 369.255Z" fill="#242993"/>
<path opacity="0.11" d="M912.718 386.718L925.31 394.887L917.239 400.124L904.648 391.955L912.718 386.718Z" fill="#242993"/>
<path opacity="0.11" d="M734.078 225.65L960.22 372.258L952.149 377.495L726.007 230.887L734.078 225.65Z" fill="#242993"/>
<path opacity="0.11" d="M747.53 216.927L973.672 363.535L965.601 368.772L739.459 222.164L747.53 216.927Z" fill="#242993"/>
<path opacity="0.11" d="M760.981 208.222L987.123 354.812L979.052 360.049L752.91 213.441L760.981 208.222Z" fill="#242993"/>
</g>
</g>
<path opacity="0.42" d="M767.81 418.714L828.429 376.834L692.148 288.479L627.836 337.027L767.81 418.714Z" fill="url(#paint7_radial)"/>
<path opacity="0.42" d="M828.429 376.834L842.31 278.344L714.434 195.978V302.725L828.429 376.834Z" fill="url(#paint8_radial)"/>
<path d="M701.047 148.127L714.578 139.387C714.678 139.317 714.794 139.28 714.912 139.28C715.03 139.28 715.146 139.317 715.246 139.387L884.781 249.387C885.087 249.631 885.336 249.953 885.511 250.325C885.685 250.698 885.779 251.111 885.784 251.532V287.46C885.797 287.618 885.778 287.777 885.728 287.926C885.678 288.075 885.6 288.209 885.498 288.318L871.871 297.13L871.76 279.774L715.326 178.353C715.02 178.11 714.769 177.789 714.595 177.416C714.42 177.043 714.327 176.629 714.323 176.208V163.875L701.047 148.127Z" fill="url(#paint9_linear)"/>
<path d="M701.652 187.148L871.171 297.059C871.728 297.416 872.174 297.059 872.174 296.201V260.273C872.169 259.852 872.076 259.438 871.902 259.065C871.728 258.692 871.477 258.371 871.171 258.128L701.652 148.217C701.094 147.859 700.649 148.217 700.649 149.075V185.038C700.659 185.453 700.755 185.86 700.929 186.226C701.103 186.592 701.35 186.907 701.652 187.148Z" fill="url(#paint10_linear)"/>
<path opacity="0.6" d="M725.036 179.873L857.035 267.029C852.849 271.096 849.002 275.584 845.541 280.435L712.572 194.226C716.295 188.991 720.47 184.184 725.036 179.873Z" fill="#242993"/>
<path d="M706.491 176.351L866.347 280.024C866.713 280.275 867.032 280.024 867.032 279.452V270.426C867.025 270.136 866.96 269.853 866.841 269.596C866.723 269.339 866.554 269.115 866.347 268.942L706.491 165.376C706.109 165.126 705.806 165.376 705.806 165.948V174.886C705.807 175.174 705.869 175.458 705.988 175.713C706.108 175.968 706.28 176.187 706.491 176.351Z" fill="#242993"/>
<path d="M706.491 165.376L709.675 167.468V172.347C709.675 172.636 709.738 172.919 709.857 173.175C709.976 173.43 710.148 173.649 710.359 173.813L867.095 275.252V279.417C867.095 279.971 866.777 280.239 866.411 279.989L706.555 176.316C706.344 176.151 706.171 175.932 706.052 175.677C705.933 175.422 705.87 175.138 705.87 174.85V165.913C705.806 165.376 706.109 165.037 706.491 165.376Z" fill="#4553C7"/>
<path opacity="0.96" d="M616.677 565.197L483.692 478.969C500.852 467.851 515.306 443.506 519.732 420.233C520.586 415.573 522.303 411.166 524.771 407.299C527.239 403.431 530.403 400.189 534.059 397.783L634.554 332.647C648.355 323.738 659.969 311.121 668.354 295.927C676.74 280.734 681.634 263.44 682.597 245.598C684.189 215.014 704.803 184.931 720.802 174.564L853.787 260.773C838.044 270.998 820.708 299.526 818.766 329.591C817.722 347.413 812.805 364.677 804.447 379.874C796.089 395.07 784.543 407.736 770.819 416.766L667.108 483.992C663.452 486.399 660.288 489.641 657.82 493.508C655.352 497.376 653.635 501.782 652.781 506.443C648.356 529.68 633.901 554.061 616.741 565.197H616.677Z" fill="url(#paint11_linear)"/>
<path opacity="0.8" d="M720.818 174.564L853.803 260.773C852.737 261.47 851.686 262.221 850.62 262.99L717.634 176.78C718.701 176.101 719.751 175.261 720.818 174.564Z" fill="#4553C7"/>
<g opacity="0.32">
<path opacity="0.32" d="M770.819 276.557L794.14 291.732L794.331 288.711L771.057 273.59L770.819 276.557Z" fill="#4553C7"/>
<path opacity="0.32" d="M759.071 268.888L767.301 274.251L767.539 271.302L759.309 265.975L759.071 268.888Z" fill="#4553C7"/>
<path opacity="0.32" d="M750.045 263.026L755.584 266.636L755.839 263.723L750.315 260.13L750.045 263.026Z" fill="#4553C7"/>
<path opacity="0.32" d="M780.895 290.284L793.71 298.668L793.901 295.611L781.102 287.264L780.895 290.284Z" fill="#4553C7"/>
<path opacity="0.32" d="M761.872 277.844L777.329 287.943L777.536 284.94L762.111 274.876L761.872 277.844Z" fill="#4553C7"/>
<path opacity="0.32" d="M752.783 271.891L758.37 275.538L758.625 272.588L753.053 268.96L752.783 271.891Z" fill="#4553C7"/>
<path opacity="0.32" d="M744.218 266.279L749.758 269.907L750.013 266.976L744.489 263.365L744.218 266.279Z" fill="#4553C7"/>
<path opacity="0.32" d="M783.936 299.526L793.28 305.657L793.471 302.6L784.159 296.487L783.936 299.526Z" fill="#4553C7"/>
<path opacity="0.32" d="M777.186 295.093L780.354 297.166L780.561 294.127L777.409 292.054L777.186 295.093Z" fill="#4553C7"/>
<path opacity="0.32" d="M767.921 288.997L773.62 292.733L773.843 289.712L768.16 285.994L767.921 288.997Z" fill="#4553C7"/>
<path opacity="0.32" d="M758.673 290.124L792.834 312.717L793.025 309.625L758.927 287.121L758.673 290.124Z" fill="#4553C7"/>
<path opacity="0.32" d="M746.893 282.348L755.139 287.8L755.409 284.797L747.163 279.363L746.893 282.348Z" fill="#4553C7"/>
<path opacity="0.32" d="M782.981 313.593L792.389 319.849L792.58 316.721L783.187 310.483L782.981 313.593Z" fill="#4553C7"/>
<path opacity="0.32" d="M761.236 299.132L779.351 311.18L779.574 308.088L761.49 296.094L761.236 299.132Z" fill="#4553C7"/>
<path opacity="0.32" d="M752.034 293.019L757.686 296.773L757.94 293.752L752.305 289.998L752.034 293.019Z" fill="#4553C7"/>
<path opacity="0.32" d="M772.697 314.165L791.943 327.017L792.134 323.871L772.936 311.073L772.697 314.165Z" fill="#4553C7"/>
<path opacity="0.32" d="M755.457 302.636L769.099 311.752L769.338 308.677L755.728 299.579L755.457 302.636Z" fill="#4553C7"/>
<path opacity="0.32" d="M742.833 294.199L751.923 300.276L752.178 297.22L743.12 291.178L742.833 294.199Z" fill="#4553C7"/>
<path opacity="0.32" d="M784.923 329.859L791.481 334.274L791.688 331.092L785.13 326.695L784.923 329.859Z" fill="#4553C7"/>
<path opacity="0.32" d="M772.681 321.637L781.261 327.392L781.484 324.246L772.92 318.508L772.681 321.637Z" fill="#4553C7"/>
<path opacity="0.32" d="M755.441 310.036L769.068 319.188L769.306 316.078L755.696 306.961L755.441 310.036Z" fill="#4553C7"/>
<path opacity="0.32" d="M770.978 328.018L791.035 341.567L791.227 338.367L771.217 324.872L770.978 328.018Z" fill="#4553C7"/>
<path opacity="0.32" d="M748.962 313.146L767.348 325.569L767.587 322.423L749.249 310.054L748.962 313.146Z" fill="#4553C7"/>
<path opacity="0.32" d="M739.745 306.926L745.412 310.751L745.699 307.676L740.048 303.851L739.745 306.926Z" fill="#4553C7"/>
<path opacity="0.32" d="M730.99 300.991L736.609 304.781L736.896 301.742L731.292 297.953L730.99 300.991Z" fill="#4553C7"/>
<path opacity="0.32" d="M778.46 340.709L790.574 348.949L790.765 345.714L778.682 337.509L778.46 340.709Z" fill="#4553C7"/>
<path opacity="0.32" d="M725.1 246.777L709.929 236.911L710.248 234.104L725.402 243.953L725.1 246.777Z" fill="#4553C7"/>
<path opacity="0.32" d="M721.104 251.157L709.165 243.346L709.5 240.521L721.423 248.315L721.104 251.157Z" fill="#4553C7"/>
<path opacity="0.32" d="M717.061 255.536L708.401 249.834L708.735 246.992L717.379 252.658L717.061 255.536Z" fill="#4553C7"/>
<path opacity="0.32" d="M720.308 264.759L707.637 256.376L707.971 253.516L720.627 261.846L720.308 264.759Z" fill="#4553C7"/>
<path opacity="0.32" d="M715.581 268.781L706.857 262.972L707.191 260.076L715.915 265.85L715.581 268.781Z" fill="#4553C7"/>
<path opacity="0.32" d="M717.188 277.057L706.077 269.621L706.411 266.708L717.523 274.108L717.188 277.057Z" fill="#4553C7"/>
<path opacity="0.32" d="M711.346 280.4L705.281 276.324L705.631 273.375L711.68 277.45L711.346 280.4Z" fill="#4553C7"/>
<path opacity="0.32" d="M716.329 291.089L704.485 283.081L704.835 280.114L716.647 288.086L716.329 291.089Z" fill="#4553C7"/>
<path opacity="0.32" d="M714.928 297.542L703.689 289.909L704.039 286.906L715.262 294.521L714.928 297.542Z" fill="#4553C7"/>
<path opacity="0.32" d="M769.688 334.757L774.782 338.224L775.021 335.025L769.927 331.575L769.688 334.757Z" fill="#4553C7"/>
<path opacity="0.32" d="M754.725 324.586L766.059 332.29L766.298 329.126L754.995 321.458L754.725 324.586Z" fill="#4553C7"/>
</g>
<g opacity="0.32">
<path opacity="0.32" d="M684.953 375.421L650.282 352.935L652.749 351.344L687.42 373.813L684.953 375.421Z" fill="#4553C7"/>
<path opacity="0.32" d="M705.106 388.488L692.594 380.391L695.077 378.782L707.589 386.879L705.106 388.488Z" fill="#4553C7"/>
<path opacity="0.32" d="M715.151 395.012L711.489 392.617L713.957 391.026L717.634 393.403L715.151 395.012Z" fill="#4553C7"/>
<path opacity="0.32" d="M734.03 407.238L721.518 399.141L724.002 397.532L736.514 405.648L734.03 407.238Z" fill="#4553C7"/>
<path opacity="0.32" d="M655.28 362.838L645.156 356.26L647.623 354.651L657.764 361.229L655.28 362.838Z" fill="#4553C7"/>
<path opacity="0.32" d="M699.98 391.813L662.921 367.789L665.405 366.18L702.464 390.204L699.98 391.813Z" fill="#4553C7"/>
<path opacity="0.32" d="M710.025 398.319L706.364 395.942L708.831 394.351L712.508 396.71L710.025 398.319Z" fill="#4553C7"/>
<path opacity="0.32" d="M728.92 410.563L716.408 402.448L718.876 400.857L731.388 408.954L728.92 410.563Z" fill="#4553C7"/>
<path opacity="0.32" d="M645.092 362.873L640.03 359.585L642.497 357.976L647.576 361.265L645.092 362.873Z" fill="#4553C7"/>
<path opacity="0.32" d="M658.751 371.721L652.733 367.825L655.217 366.216L661.218 370.113L658.751 371.721Z" fill="#4553C7"/>
<path opacity="0.32" d="M668.795 378.228L665.118 375.85L667.601 374.242L671.263 376.619L668.795 378.228Z" fill="#4553C7"/>
<path opacity="0.32" d="M687.675 390.472L675.163 382.357L677.63 380.766L690.158 388.863L687.675 390.472Z" fill="#4553C7"/>
<path opacity="0.32" d="M645.029 369.469L634.904 362.909L637.372 361.301L647.512 367.878L645.029 369.469Z" fill="#4553C7"/>
<path opacity="0.32" d="M665.198 382.553L652.685 374.438L655.153 372.83L667.665 380.945L665.198 382.553Z" fill="#4553C7"/>
<path opacity="0.32" d="M675.242 389.06L671.565 386.683L674.048 385.074L677.71 387.451L675.242 389.06Z" fill="#4553C7"/>
<path opacity="0.32" d="M694.122 401.304L681.61 393.189L684.093 391.58L696.605 399.695L694.122 401.304Z" fill="#4553C7"/>
<path opacity="0.32" d="M664.067 388.953L629.396 366.484L631.864 364.875L666.551 387.362L664.067 388.953Z" fill="#4553C7"/>
<path opacity="0.32" d="M684.236 402.037L671.724 393.922L674.192 392.313L686.704 400.428L684.236 402.037Z" fill="#4553C7"/>
<path opacity="0.32" d="M694.265 408.543L690.604 406.166L693.071 404.557L696.749 406.934L694.265 408.543Z" fill="#4553C7"/>
<path opacity="0.32" d="M713.161 420.787L700.649 412.672L703.116 411.064L715.628 419.179L713.161 420.787Z" fill="#4553C7"/>
<path opacity="0.32" d="M634.395 376.369L624.27 369.809L626.738 368.2L636.878 374.76L634.395 376.369Z" fill="#4553C7"/>
<path opacity="0.32" d="M679.111 405.344L642.052 381.32L644.519 379.729L681.578 403.753L679.111 405.344Z" fill="#4553C7"/>
<path opacity="0.32" d="M689.155 411.868L685.478 409.491L687.961 407.882L691.623 410.259L689.155 411.868Z" fill="#4553C7"/>
<path opacity="0.32" d="M708.035 424.112L695.523 415.997L697.99 414.388L710.502 422.503L708.035 424.112Z" fill="#4553C7"/>
<path opacity="0.32" d="M624.207 376.405L619.145 373.116L621.628 371.525L626.69 374.796L624.207 376.405Z" fill="#4553C7"/>
<path opacity="0.32" d="M637.865 385.253L631.864 381.356L634.331 379.765L640.348 383.662L637.865 385.253Z" fill="#4553C7"/>
<path opacity="0.32" d="M647.91 391.777L644.233 389.382L646.716 387.791L650.377 390.168L647.91 391.777Z" fill="#4553C7"/>
<path opacity="0.32" d="M666.79 404.021L654.277 395.906L656.761 394.297L669.273 402.412L666.79 404.021Z" fill="#4553C7"/>
<path opacity="0.32" d="M624.159 383.018L614.019 376.44L616.502 374.832L626.626 381.41L624.159 383.018Z" fill="#4553C7"/>
<path opacity="0.32" d="M644.312 396.085L631.8 387.97L634.283 386.361L646.796 394.476L644.312 396.085Z" fill="#4553C7"/>
<path opacity="0.32" d="M654.357 402.591L650.68 400.214L653.163 398.605L656.84 400.982L654.357 402.591Z" fill="#4553C7"/>
<path opacity="0.32" d="M673.237 414.835L660.724 406.72L663.208 405.111L675.72 413.226L673.237 414.835Z" fill="#4553C7"/>
<path opacity="0.32" d="M643.198 402.502L608.511 380.015L610.994 378.407L645.665 400.893L643.198 402.502Z" fill="#4553C7"/>
<path opacity="0.32" d="M663.351 415.568L650.839 407.453L653.306 405.844L665.818 413.959L663.351 415.568Z" fill="#4553C7"/>
<path opacity="0.32" d="M673.396 422.074L669.719 419.697L672.202 418.088L675.863 420.466L673.396 422.074Z" fill="#4553C7"/>
<path opacity="0.32" d="M692.275 434.318L679.763 426.203L682.247 424.595L694.759 432.71L692.275 434.318Z" fill="#4553C7"/>
<path opacity="0.32" d="M613.525 389.9L603.385 383.34L605.868 381.731L615.993 388.309L613.525 389.9Z" fill="#4553C7"/>
<path opacity="0.32" d="M658.225 418.893L621.166 394.869L623.65 393.26L660.708 417.284L658.225 418.893Z" fill="#4553C7"/>
<path opacity="0.32" d="M668.27 425.399L664.593 423.022L667.076 421.413L670.737 423.79L668.27 425.399Z" fill="#4553C7"/>
<path opacity="0.32" d="M687.15 437.643L674.637 429.528L677.121 427.919L689.633 436.034L687.15 437.643Z" fill="#4553C7"/>
<path opacity="0.32" d="M603.337 389.936L598.259 386.665L600.743 385.056L605.805 388.345L603.337 389.936Z" fill="#4553C7"/>
<path opacity="0.32" d="M616.98 398.802L610.978 394.905L613.462 393.296L619.463 397.193L616.98 398.802Z" fill="#4553C7"/>
<path opacity="0.32" d="M627.024 405.308L623.363 402.931L625.83 401.322L629.508 403.699L627.024 405.308Z" fill="#4553C7"/>
<path opacity="0.32" d="M645.92 417.552L633.392 409.437L635.875 407.828L648.387 415.943L645.92 417.552Z" fill="#4553C7"/>
<path opacity="0.32" d="M603.274 396.549L593.149 389.989L595.617 388.381L605.757 394.941L603.274 396.549Z" fill="#4553C7"/>
<path opacity="0.32" d="M623.427 409.616L610.915 401.501L613.398 399.892L625.91 408.007L623.427 409.616Z" fill="#4553C7"/>
<path opacity="0.32" d="M633.471 416.122L629.81 413.745L632.278 412.136L635.955 414.531L633.471 416.122Z" fill="#4553C7"/>
<path opacity="0.32" d="M652.367 428.366L639.855 420.269L642.322 418.66L654.834 426.758L652.367 428.366Z" fill="#4553C7"/>
</g>
<path opacity="0.2" d="M551.904 360.8C543.133 366.484 528.917 366.484 520.146 360.8C511.375 355.116 511.375 345.893 520.146 340.208C528.917 334.524 543.133 334.524 551.904 340.208C560.675 345.893 560.611 355.116 551.904 360.8Z" fill="#242993"/>
<path d="M512.33 324.55L507.634 312.038L509.496 311.752L511.995 314.844L512.33 324.55Z" fill="#DD821F"/>
<path d="M587.339 288.551L582.691 276.199C582.691 276.199 581.274 290.231 581.322 290.392C581.369 290.553 587.339 288.551 587.339 288.551Z" fill="#FFD85A"/>
<path d="M558.354 329.163C579.112 319.346 590.07 295.737 582.828 276.432C575.587 257.126 552.888 249.434 532.13 259.251C511.372 269.068 500.414 292.677 507.656 311.983C514.897 331.289 537.596 338.98 558.354 329.163Z" fill="#FFD85A"/>
<path d="M563.007 341.794C583.767 331.98 594.728 308.374 587.49 289.067C580.251 269.76 557.554 262.063 536.795 271.876C516.035 281.69 505.074 305.296 512.312 324.603C519.551 343.91 542.248 351.607 563.007 341.794Z" fill="#FFD85A"/>
<path d="M513.937 294.932C511.745 299.432 510.465 304.421 510.189 309.541C509.914 314.661 510.651 319.787 512.346 324.55C519.589 343.855 542.289 351.559 563.047 341.728C572.649 337.352 580.623 329.408 585.635 319.224L513.937 294.932Z" fill="#DD821F"/>
<path d="M562.427 340.245C582.263 330.868 592.735 308.309 585.817 289.857C578.899 271.405 557.211 264.048 537.375 273.425C517.539 282.802 507.067 305.361 513.985 323.813C520.903 342.265 542.591 349.622 562.427 340.245Z" fill="#F9BF30"/>
<path d="M559.975 333.595C544.056 341.12 526.641 335.221 521.085 320.403C515.529 305.585 523.934 287.478 539.853 279.953C555.772 272.428 573.187 278.326 578.743 293.144C584.298 307.962 575.893 326.052 559.975 333.595Z" fill="#F2B42A"/>
<path d="M578.743 293.144C578.52 292.537 578.249 291.929 577.995 291.357C582.213 305.782 573.872 322.727 558.606 329.948C543.339 337.17 526.768 332.022 520.48 318.544C520.655 319.17 520.862 319.796 521.085 320.332C526.641 335.15 544.056 341.049 559.975 333.523C575.893 325.998 584.298 307.945 578.743 293.144Z" fill="#FFD85A"/>
<path d="M556.297 306.247L548.147 303.494C543.053 307.677 533.549 315.47 525.988 321.762C528.589 324.618 531.706 326.816 535.127 328.207C538.549 329.597 542.196 330.148 545.823 329.823L556.297 306.247Z" fill="#FFD85A"/>
<path d="M553.989 328.036C554.976 327.696 555.947 327.285 556.918 326.838C563.428 323.859 568.852 318.499 572.312 311.627L559.019 307.122L553.989 328.036Z" fill="#FFD85A"/>
<path d="M539.408 300.527L524.046 295.325C521.722 300.688 519.907 306.05 521.037 311.502L539.408 300.527Z" fill="#FFD85A"/>
<path d="M539.646 283.885C555.565 276.342 572.98 282.259 578.52 297.059C579.622 300.003 580.2 303.16 580.223 306.354C580.808 301.881 580.296 297.315 578.743 293.144C573.187 278.326 555.788 272.428 539.853 279.953C527.118 285.959 519.254 298.686 519.382 311.108C520.751 300.008 528.28 289.248 539.646 283.885Z" fill="#DD821F"/>
<path d="M507.634 312.038C508.7 314.86 510.121 317.496 511.852 319.867C511.534 316.65 511.072 311.859 511.072 311.859L511.231 303.762L512.823 300.545L515.593 295.468L510.085 280.793C505.055 290.66 503.845 301.939 507.634 312.038Z" fill="#DD821F"/>
<path d="M578.549 270.132L578.402 270.201C578.151 270.321 578.034 270.646 578.141 270.927L580.76 277.867C580.867 278.148 581.156 278.28 581.407 278.161L581.553 278.091C581.804 277.972 581.921 277.647 581.815 277.365L579.195 270.425C579.089 270.144 578.799 270.012 578.549 270.132Z" fill="#DD821F"/>
<path d="M572.349 264.263L572.026 264.416C571.735 264.553 571.598 264.931 571.721 265.258L574.921 273.791C575.044 274.119 575.38 274.273 575.672 274.135L575.995 273.982C576.286 273.844 576.423 273.467 576.3 273.139L573.1 264.606C572.977 264.279 572.641 264.125 572.349 264.263Z" fill="#DD821F"/>
<path d="M565.516 259.967L564.929 260.244C564.605 260.397 564.453 260.817 564.589 261.18L567.752 269.615C567.888 269.979 568.261 270.15 568.585 269.997L569.172 269.719C569.496 269.566 569.649 269.147 569.512 268.783L566.35 260.348C566.213 259.984 565.84 259.813 565.516 259.967Z" fill="#DD821F"/>
<path d="M556.327 257.329L555.74 257.607C555.416 257.76 555.264 258.179 555.4 258.543L558.841 267.719C558.977 268.083 559.35 268.254 559.675 268.101L560.261 267.823C560.586 267.67 560.738 267.251 560.601 266.887L557.161 257.711C557.024 257.347 556.651 257.176 556.327 257.329Z" fill="#DD821F"/>
<path d="M547.867 256.64L547.28 256.918C546.956 257.071 546.803 257.49 546.94 257.854L550.621 267.673C550.758 268.037 551.131 268.207 551.455 268.054L552.042 267.777C552.366 267.624 552.518 267.204 552.382 266.84L548.701 257.022C548.564 256.658 548.191 256.487 547.867 256.64Z" fill="#DD821F"/>
<path d="M539.761 256.341L539.176 256.62C538.852 256.774 538.701 257.193 538.838 257.557L542.464 267.16C542.601 267.524 542.974 267.693 543.298 267.539L543.884 267.261C544.207 267.107 544.358 266.687 544.221 266.324L540.596 256.72C540.458 256.357 540.085 256.187 539.761 256.341Z" fill="#DD821F"/>
<path d="M532.999 260.831L532.412 261.108C532.088 261.261 531.936 261.681 532.072 262.044L535.704 271.731C535.841 272.095 536.214 272.266 536.538 272.113L537.125 271.836C537.449 271.682 537.601 271.263 537.465 270.899L533.833 261.212C533.697 260.848 533.323 260.677 532.999 260.831Z" fill="#DD821F"/>
<path d="M526.277 264.746L525.69 265.024C525.366 265.177 525.214 265.596 525.351 265.96L528.871 275.35C529.008 275.714 529.381 275.885 529.705 275.732L530.292 275.455C530.616 275.301 530.768 274.882 530.632 274.518L527.111 265.128C526.975 264.764 526.601 264.593 526.277 264.746Z" fill="#DD821F"/>
<path d="M520.021 269.864L519.434 270.142C519.11 270.295 518.958 270.714 519.095 271.078L522.567 280.336C522.704 280.7 523.077 280.871 523.401 280.718L523.988 280.44C524.312 280.287 524.464 279.868 524.328 279.504L520.855 270.246C520.719 269.882 520.345 269.711 520.021 269.864Z" fill="#DD821F"/>
<path d="M514.325 276.701L513.738 276.978C513.414 277.132 513.262 277.551 513.398 277.915L516.999 287.519C517.135 287.883 517.509 288.054 517.833 287.901L518.42 287.623C518.744 287.47 518.896 287.051 518.76 286.687L515.159 277.083C515.022 276.719 514.649 276.548 514.325 276.701Z" fill="#DD821F"/>
<path d="M391.578 458.656L379.671 460.89L379.83 458.781L383.093 456.761L391.578 458.656Z" fill="#DD821F"/>
<path d="M377.76 368.389L365.98 370.587C365.98 370.587 377.808 375.396 377.951 375.378C378.095 375.36 377.76 368.389 377.76 368.389Z" fill="#FFD85A"/>
<path d="M379.637 460.931C398.041 457.495 409.965 434.485 406.27 409.535C402.576 384.586 384.662 367.146 366.259 370.582C347.856 374.018 335.932 397.028 339.626 421.978C343.32 446.927 361.234 464.367 379.637 460.931Z" fill="#FFD85A"/>
<path d="M391.568 458.712C409.972 455.276 421.896 432.265 418.201 407.316C414.507 382.367 396.593 364.926 378.19 368.362C359.787 371.798 347.863 394.809 351.557 419.758C355.252 444.707 373.165 462.148 391.568 458.712Z" fill="#FFD85A"/>
<path d="M366.283 450.04C369.675 453.478 373.7 456.033 378.073 457.522C382.445 459.011 387.057 459.399 391.578 458.656C409.98 455.224 421.919 432.201 418.21 407.266C416.631 395.748 411.572 385.189 403.883 377.362L366.283 450.04Z" fill="#DD821F"/>
<path d="M391.271 456.702C408.859 453.418 420.255 431.431 416.726 407.591C413.196 383.752 396.076 367.089 378.488 370.372C360.9 373.656 349.503 395.643 353.033 419.482C356.563 443.322 373.683 459.985 391.271 456.702Z" fill="#F9BF30"/>
<path d="M410.457 408.714C413.291 427.84 404.09 445.5 390.018 448.038C375.945 450.576 362.16 437.313 359.326 418.17C356.493 399.026 365.694 381.384 379.75 378.738C393.806 376.093 407.608 389.534 410.457 408.714Z" fill="#F2B42A"/>
<path d="M379.75 378.81L378.031 379.239C391.514 377.952 404.249 391 406.971 409.339C409.693 427.679 401.4 444.66 388.267 448.342C388.856 448.342 389.445 448.217 390.018 448.11C404.138 445.482 413.291 427.822 410.457 408.785C407.624 389.749 393.854 376.2 379.75 378.81Z" fill="#FFD85A"/>
<path d="M385.895 406.408L381.629 414.666C384.064 421.19 388.617 433.381 392.326 443.087C395.394 440.9 398.01 438.001 399.998 434.585C401.986 431.169 403.3 427.315 403.851 423.282L385.895 406.408Z" fill="#FFD85A"/>
<path d="M404.297 413.969C404.229 412.801 404.107 411.637 403.931 410.484C402.88 402.693 399.514 395.531 394.379 390.16L387.391 403.637L404.297 413.969Z" fill="#FFD85A"/>
<path d="M377.044 423.496L368.989 439.065C373.016 442.837 377.299 446.072 382.297 446.108L377.044 423.496Z" fill="#FFD85A"/>
<path d="M362.669 419.403C359.836 400.277 369.037 382.617 383.109 380.079C385.911 379.555 388.777 379.652 391.546 380.365C387.803 378.694 383.726 378.194 379.75 378.917C365.646 381.562 356.493 399.205 359.326 418.348C361.587 433.595 370.788 445.16 381.613 447.931C372.268 443.766 364.691 433.059 362.669 419.403Z" fill="#DD821F"/>
<path d="M379.655 460.89C382.345 460.385 384.956 459.445 387.407 458.102L380.291 457.101L373.319 455.045L370.883 452.632L367.126 448.521L353.15 451.13C360.536 458.763 369.976 462.678 379.655 460.89Z" fill="#DD821F"/>
<path d="M368.519 371.784L361.892 373.022C361.623 373.072 361.441 373.357 361.486 373.659L361.512 373.835C361.557 374.137 361.811 374.341 362.08 374.291L368.707 373.054C368.975 373.004 369.157 372.718 369.112 372.416L369.086 372.24C369.042 371.938 368.787 371.734 368.519 371.784Z" fill="#DD821F"/>
<path d="M361.899 376.93L353.765 378.449C353.452 378.507 353.241 378.839 353.293 379.189L353.351 379.577C353.403 379.928 353.698 380.165 354.01 380.106L362.144 378.588C362.456 378.529 362.667 378.198 362.616 377.847L362.558 377.46C362.506 377.109 362.211 376.872 361.899 376.93Z" fill="#DD821F"/>
<path d="M356.454 383.311L348.414 384.812C348.068 384.876 347.833 385.245 347.891 385.634L347.995 386.339C348.053 386.729 348.381 386.992 348.728 386.928L356.768 385.426C357.115 385.362 357.349 384.993 357.291 384.604L357.187 383.899C357.129 383.509 356.801 383.246 356.454 383.311Z" fill="#DD821F"/>
<path d="M352.747 392.605L344 394.238C343.653 394.302 343.419 394.671 343.476 395.06L343.581 395.765C343.638 396.155 343.966 396.418 344.313 396.353L353.06 394.721C353.407 394.656 353.641 394.287 353.584 393.898L353.479 393.193C353.422 392.803 353.094 392.54 352.747 392.605Z" fill="#DD821F"/>
<path d="M351.002 405.572L341.61 407.276C341.262 407.339 341.025 407.707 341.081 408.098L341.183 408.806C341.239 409.197 341.567 409.463 341.915 409.4L351.308 407.695C351.656 407.632 351.893 407.264 351.837 406.873L351.735 406.165C351.678 405.774 351.351 405.508 351.002 405.572Z" fill="#DD821F"/>
<path d="M350.137 410.309L340.967 412.021C340.62 412.085 340.385 412.454 340.443 412.843L340.548 413.549C340.605 413.938 340.933 414.201 341.28 414.137L350.451 412.424C350.798 412.36 351.032 411.991 350.974 411.602L350.87 410.897C350.812 410.507 350.484 410.244 350.137 410.309Z" fill="#DD821F"/>
<path d="M350.859 418.802L341.625 420.526C341.278 420.591 341.044 420.959 341.101 421.349L341.206 422.054C341.263 422.444 341.591 422.707 341.938 422.642L351.172 420.918C351.519 420.854 351.753 420.485 351.696 420.096L351.591 419.39C351.533 419.001 351.205 418.738 350.859 418.802Z" fill="#DD821F"/>
<path d="M352.415 427.126L343.464 428.797C343.117 428.861 342.883 429.23 342.94 429.619L343.045 430.325C343.103 430.714 343.431 430.977 343.778 430.913L352.728 429.241C353.075 429.177 353.31 428.808 353.252 428.419L353.148 427.714C353.09 427.324 352.762 427.061 352.415 427.126Z" fill="#DD821F"/>
<path d="M355.365 435.179L346.54 436.827C346.193 436.892 345.958 437.26 346.016 437.649L346.12 438.355C346.178 438.744 346.506 439.008 346.853 438.943L355.678 437.295C356.025 437.23 356.26 436.862 356.202 436.473L356.097 435.767C356.04 435.378 355.712 435.114 355.365 435.179Z" fill="#DD821F"/>
<path d="M360.203 442.888L351.048 444.597C350.701 444.662 350.466 445.03 350.524 445.42L350.628 446.125C350.686 446.515 351.014 446.778 351.361 446.713L360.516 445.004C360.863 444.939 361.097 444.571 361.04 444.181L360.935 443.476C360.877 443.087 360.55 442.823 360.203 442.888Z" fill="#DD821F"/>
<path opacity="0.5" d="M240.321 624.514C266.419 614.258 285.303 598.654 282.5 589.663C279.698 580.671 256.269 581.696 230.172 591.953C204.074 602.209 185.19 617.813 187.993 626.804C190.795 635.796 214.224 634.77 240.321 624.514Z" fill="#242993"/>
<path d="M216.415 556.994L216.75 547.753L218.66 542.337L219.87 546.805L216.415 556.994Z" fill="#DD821F"/>
<path d="M302.838 558.746L303.173 549.683C303.173 549.683 296.328 557.334 296.328 557.512C296.328 557.691 302.838 558.746 302.838 558.746Z" fill="#FFD85A"/>
<path d="M259.03 585.665C235.152 585.021 216.24 571.365 216.75 547.735C217.259 524.105 236.998 505.426 260.861 506.069C284.723 506.713 303.666 526.41 303.157 550.059C302.647 573.707 282.908 586.308 259.03 585.665Z" fill="#FFD85A"/>
<path d="M302.835 559.312C303.339 535.656 284.403 515.959 260.541 515.319C236.678 514.678 216.925 533.335 216.421 556.992C215.917 580.648 234.853 600.344 258.716 600.985C282.579 601.626 302.332 582.968 302.835 559.312Z" fill="#FFD85A"/>
<path d="M229.437 527.286C225.513 530.919 222.321 535.446 220.071 540.567C217.821 545.688 216.564 551.287 216.384 556.994C215.874 580.642 234.817 600.34 258.68 600.984C269.767 601.4 280.617 597.32 289.244 589.49L229.437 527.286Z" fill="#DD821F"/>
<path d="M300.894 559.26C301.375 536.66 283.283 517.843 260.484 517.231C237.685 516.618 218.812 534.443 218.331 557.043C217.85 579.643 235.942 598.461 258.741 599.073C281.54 599.685 300.413 581.861 300.894 559.26Z" fill="#F9BF30"/>
<path d="M258.919 590.992C240.628 590.509 226.094 575.405 226.492 557.262C226.89 539.119 242.029 524.802 260.319 525.302C278.61 525.803 293.144 540.889 292.762 559.032C292.38 577.175 277.193 591.492 258.919 590.992Z" fill="#F2B42A"/>
<path d="M292.762 559.032C292.762 558.281 292.762 557.548 292.762 556.797C291.17 573.868 276.588 587.006 259.046 586.523C241.503 586.04 227.447 572.223 226.651 555.028C226.651 555.761 226.54 556.511 226.524 557.262C226.126 575.405 240.66 590.509 258.95 590.992C277.241 591.474 292.38 577.175 292.762 559.032Z" fill="#FFD85A"/>
<path d="M266.05 560.909L259.253 553.759C252.71 555.421 240.5 558.549 230.758 561.123C232.082 565.328 234.193 569.165 236.951 572.375C239.708 575.585 243.046 578.093 246.741 579.731L266.05 560.909Z" fill="#FFD85A"/>
<path d="M255.289 582.233C256.383 582.386 257.482 582.475 258.584 582.501C266.101 582.784 273.463 580.06 279.358 574.815L268.215 563.286L255.289 582.233Z" fill="#FFD85A"/>
<path d="M251.898 546.269L239.084 532.953C234.786 537.171 230.933 541.89 229.899 548.057L251.898 546.269Z" fill="#FFD85A"/>
<path d="M258.584 529.217C276.891 529.717 291.409 544.821 291.027 562.964C290.95 566.555 290.286 570.099 289.069 573.421C291.378 569.059 292.649 564.104 292.762 559.032C293.144 540.889 278.626 525.785 260.319 525.302C245.738 524.909 233.146 533.918 228.482 546.752C234.085 536.063 245.531 528.877 258.584 529.217Z" fill="#DD821F"/>
<path d="M216.702 547.735C216.406 550.86 216.529 554.017 217.068 557.101C218.023 553.634 220.077 543.248 220.077 543.248L223.372 535.008L226.11 532.47L230.742 528.663L231.14 516.776C226.828 520.399 223.293 525.06 220.795 530.417C218.296 535.774 216.898 541.692 216.702 547.735Z" fill="#DD821F"/>
<path d="M300.371 546.519L300.546 544.088C300.546 543.926 300.603 543.769 300.704 543.652C300.805 543.535 300.942 543.467 301.087 543.463H301.262C301.334 543.467 301.403 543.488 301.467 543.523C301.531 543.557 301.589 543.606 301.636 543.666C301.684 543.726 301.72 543.795 301.743 543.871C301.766 543.947 301.776 544.027 301.772 544.106L301.597 546.537C301.597 546.703 301.538 546.862 301.434 546.98C301.329 547.097 301.187 547.163 301.04 547.163H300.88C300.738 547.149 300.606 547.075 300.511 546.955C300.417 546.836 300.366 546.68 300.371 546.519Z" fill="#DD821F"/>
<path d="M296.566 537.189L296.789 532.81C296.789 532.623 296.854 532.444 296.97 532.31C297.086 532.177 297.244 532.099 297.41 532.095H297.792C297.874 532.099 297.954 532.122 298.027 532.161C298.101 532.2 298.167 532.256 298.222 532.324C298.277 532.392 298.319 532.471 298.346 532.558C298.374 532.644 298.385 532.736 298.381 532.827L298.158 537.207C298.154 537.392 298.088 537.569 297.973 537.701C297.858 537.834 297.702 537.913 297.537 537.922H297.155C296.992 537.908 296.84 537.824 296.73 537.688C296.62 537.551 296.562 537.373 296.566 537.189Z" fill="#DD821F"/>
<path d="M291.313 529.038L291.536 524.784C291.534 524.681 291.55 524.58 291.584 524.484C291.617 524.389 291.667 524.302 291.731 524.229C291.795 524.156 291.871 524.097 291.955 524.058C292.039 524.018 292.129 523.997 292.221 523.997H292.889C292.981 524.002 293.072 524.027 293.155 524.071C293.238 524.115 293.313 524.176 293.375 524.253C293.437 524.329 293.486 524.419 293.517 524.516C293.548 524.613 293.562 524.716 293.558 524.82L293.335 529.074C293.335 529.284 293.262 529.486 293.131 529.636C293 529.787 292.822 529.873 292.635 529.878H291.966C291.782 529.86 291.611 529.762 291.489 529.606C291.367 529.449 291.304 529.246 291.313 529.038Z" fill="#DD821F"/>
<path d="M283.433 522.532L283.672 517.384C283.672 517.173 283.745 516.972 283.876 516.821C284.007 516.671 284.185 516.584 284.373 516.579H285.025C285.213 516.593 285.388 516.689 285.513 516.846C285.638 517.003 285.703 517.209 285.694 517.42L285.455 522.567C285.455 522.778 285.382 522.98 285.251 523.13C285.12 523.28 284.942 523.367 284.755 523.372H284.086C283.902 523.354 283.731 523.256 283.609 523.099C283.487 522.943 283.425 522.739 283.433 522.532Z" fill="#DD821F"/>
<path d="M275.506 518.134L275.761 512.2C275.761 511.992 275.834 511.791 275.966 511.644C276.097 511.497 276.275 511.414 276.461 511.414H277.193C277.286 511.416 277.377 511.439 277.462 511.482C277.546 511.525 277.622 511.587 277.684 511.664C277.747 511.741 277.795 511.831 277.825 511.929C277.856 512.028 277.868 512.132 277.862 512.236L277.607 518.17C277.607 518.38 277.534 518.582 277.403 518.733C277.272 518.883 277.094 518.97 276.907 518.975H276.238C276.14 518.977 276.042 518.957 275.951 518.915C275.861 518.874 275.778 518.812 275.71 518.733C275.641 518.654 275.587 518.56 275.552 518.458C275.517 518.355 275.501 518.245 275.506 518.134Z" fill="#DD821F"/>
<path d="M267.546 515.507L267.785 509.805C267.789 509.596 267.864 509.397 267.994 509.247C268.124 509.098 268.3 509.01 268.486 509H269.234C269.418 509.019 269.589 509.116 269.711 509.273C269.833 509.43 269.896 509.633 269.887 509.841L269.648 515.543C269.648 515.751 269.574 515.951 269.443 516.099C269.311 516.246 269.133 516.329 268.947 516.329H268.279C268.181 516.337 268.082 516.321 267.99 516.283C267.898 516.244 267.815 516.184 267.745 516.106C267.676 516.028 267.622 515.934 267.588 515.831C267.553 515.727 267.539 515.617 267.546 515.507Z" fill="#DD821F"/>
<path d="M259.539 514.613L259.794 508.822C259.794 508.612 259.867 508.41 259.998 508.259C260.129 508.109 260.307 508.022 260.495 508.017H261.147C261.334 508.031 261.509 508.127 261.634 508.284C261.759 508.441 261.825 508.647 261.816 508.858L261.561 514.649C261.563 514.753 261.547 514.856 261.512 514.953C261.478 515.049 261.426 515.137 261.361 515.21C261.295 515.284 261.217 515.342 261.131 515.381C261.045 515.419 260.953 515.438 260.861 515.435H260.208C260.115 515.433 260.024 515.41 259.939 515.367C259.855 515.324 259.779 515.262 259.717 515.185C259.654 515.108 259.606 515.018 259.576 514.92C259.545 514.821 259.533 514.717 259.539 514.613Z" fill="#DD821F"/>
<path d="M251.516 514.792L251.755 509.43C251.759 509.221 251.834 509.021 251.964 508.872C252.094 508.722 252.27 508.634 252.456 508.625H253.124C253.31 508.643 253.482 508.74 253.607 508.896C253.731 509.053 253.797 509.256 253.793 509.465L253.538 514.828C253.538 515.038 253.465 515.24 253.334 515.39C253.203 515.541 253.025 515.627 252.838 515.632H252.185C251.998 515.618 251.823 515.522 251.698 515.365C251.573 515.208 251.508 515.002 251.516 514.792Z" fill="#DD821F"/>
<path d="M243.461 516.776L243.7 511.521C243.7 511.311 243.773 511.109 243.904 510.958C244.035 510.808 244.213 510.721 244.401 510.717H245.053C245.241 510.73 245.415 510.826 245.54 510.983C245.665 511.14 245.731 511.346 245.722 511.557L245.483 516.812C245.483 517.02 245.409 517.22 245.278 517.368C245.147 517.515 244.968 517.598 244.783 517.598H244.114C244.023 517.594 243.933 517.569 243.851 517.525C243.768 517.481 243.694 517.418 243.633 517.342C243.572 517.265 243.526 517.176 243.496 517.078C243.467 516.981 243.455 516.878 243.461 516.776Z" fill="#DD821F"/>
<path d="M235.343 521.191L235.598 515.507C235.597 515.297 235.671 515.095 235.802 514.944C235.933 514.794 236.111 514.707 236.298 514.703H236.951C237.138 514.716 237.313 514.812 237.438 514.969C237.563 515.126 237.628 515.332 237.619 515.543L237.365 521.227C237.365 521.437 237.291 521.639 237.16 521.789C237.029 521.94 236.851 522.027 236.664 522.031H236.011C235.824 522.017 235.649 521.922 235.524 521.765C235.399 521.607 235.334 521.402 235.343 521.191Z" fill="#DD821F"/>
</g>
<defs>
<linearGradient id="paint0_linear" x1="965.617" y1="218.518" x2="637.26" y2="218.518" gradientUnits="userSpaceOnUse">
<stop stop-color="#C0D6FF"/>
<stop offset="0.3" stop-color="#C5DBFF"/>
<stop offset="0.65" stop-color="#D3E9FF"/>
<stop offset="1" stop-color="#E9FFFF"/>
</linearGradient>
<linearGradient id="paint1_linear" x1="965.617" y1="313.075" x2="909.232" y2="313.075" gradientUnits="userSpaceOnUse">
<stop stop-color="#5778FF"/>
<stop offset="0.18" stop-color="#5C7DFF"/>
<stop offset="0.39" stop-color="#6A8AFF"/>
<stop offset="0.61" stop-color="#82A0FF"/>
<stop offset="0.85" stop-color="#A3BEFF"/>
<stop offset="1" stop-color="#BCD5FF"/>
</linearGradient>
<linearGradient id="paint2_linear" x1="-706156" y1="76298.2" x2="-571034" y2="76298.2" gradientUnits="userSpaceOnUse">
<stop stop-color="#5778FF"/>
<stop offset="0.18" stop-color="#5C7DFF"/>
<stop offset="0.39" stop-color="#6A8AFF"/>
<stop offset="0.61" stop-color="#82A0FF"/>
<stop offset="0.85" stop-color="#A3BEFF"/>
<stop offset="1" stop-color="#BCD5FF"/>
</linearGradient>
<linearGradient id="paint3_linear" x1="-661020" y1="75245.8" x2="-525770" y2="75245.8" gradientUnits="userSpaceOnUse">
<stop stop-color="#C0D6FF"/>
<stop offset="0.3" stop-color="#C5DBFF"/>
<stop offset="0.65" stop-color="#D3E9FF"/>
<stop offset="1" stop-color="#E9FFFF"/>
</linearGradient>
<linearGradient id="paint4_linear" x1="-162904" y1="20868" x2="-154042" y2="20868" gradientUnits="userSpaceOnUse">
<stop stop-color="#C0D6FF"/>
<stop offset="0.3" stop-color="#C5DBFF"/>
<stop offset="0.65" stop-color="#D3E9FF"/>
<stop offset="1" stop-color="#E9FFFF"/>
</linearGradient>
<linearGradient id="paint5_linear" x1="-712541" y1="55703.1" x2="-577290" y2="55703.1" gradientUnits="userSpaceOnUse">
<stop stop-color="#C0D6FF"/>
<stop offset="0.3" stop-color="#C5DBFF"/>
<stop offset="0.65" stop-color="#D3E9FF"/>
<stop offset="1" stop-color="#E9FFFF"/>
</linearGradient>
<linearGradient id="paint6_linear" x1="-183964" y1="12789" x2="-175102" y2="12789" gradientUnits="userSpaceOnUse">
<stop stop-color="#C0D6FF"/>
<stop offset="0.3" stop-color="#C5DBFF"/>
<stop offset="0.65" stop-color="#D3E9FF"/>
<stop offset="1" stop-color="#E9FFFF"/>
</linearGradient>
<radialGradient id="paint7_radial" cx="0" cy="0" r="1" gradientUnits="userSpaceOnUse" gradientTransform="translate(786.467 353.597) rotate(180) scale(133.017 149.361)">
<stop stop-color="#2B3AA5"/>
<stop offset="1" stop-color="#182484"/>
</radialGradient>
<radialGradient id="paint8_radial" cx="0" cy="0" r="1" gradientUnits="userSpaceOnUse" gradientTransform="translate(-185584 33601.9) scale(8178.92 11567.5)">
<stop stop-color="#2B3AA5"/>
<stop offset="1" stop-color="#182484"/>
</radialGradient>
<linearGradient id="paint9_linear" x1="852.227" y1="319.402" x2="745.68" y2="148.57" gradientUnits="userSpaceOnUse">
<stop stop-color="#5778FF"/>
<stop offset="0.04" stop-color="#5C7DFF"/>
<stop offset="0.09" stop-color="#6A8AFF"/>
<stop offset="0.14" stop-color="#82A0FF"/>
<stop offset="0.19" stop-color="#A3BEFF"/>
<stop offset="0.22" stop-color="#BCD5FF"/>
</linearGradient>
<linearGradient id="paint10_linear" x1="-241266" y1="30498" x2="-246387" y2="18983" gradientUnits="userSpaceOnUse">
<stop stop-color="#C0D6FF"/>
<stop offset="0.3" stop-color="#C5DBFF"/>
<stop offset="0.65" stop-color="#D3E9FF"/>
<stop offset="1" stop-color="#E9FFFF"/>
</linearGradient>
<linearGradient id="paint11_linear" x1="580.669" y1="555.598" x2="805.714" y2="200.479" gradientUnits="userSpaceOnUse">
<stop stop-color="#C0D6FF"/>
<stop offset="0.08" stop-color="#C3D9FF"/>
<stop offset="0.13" stop-color="#CCE2FF"/>
<stop offset="0.18" stop-color="#DCF2FF"/>
<stop offset="0.21" stop-color="#E9FFFF"/>
<stop offset="0.26" stop-color="#D8EEFF"/>
<stop offset="0.31" stop-color="#CBE1FF"/>
<stop offset="0.39" stop-color="#C2D8FF"/>
<stop offset="0.51" stop-color="#C0D6FF"/>
<stop offset="0.62" stop-color="#D0E6FF"/>
<stop offset="0.75" stop-color="#E9FFFF"/>
<stop offset="1" stop-color="#C0D6FF"/>
</linearGradient>
<clipPath id="clip0">
<rect width="1099" height="656" fill="white"/>
</clipPath>
</defs>
</svg>
