<svg width="96" height="19" viewBox="0 0 96 19" fill="none" xmlns="http://www.w3.org/2000/svg">
<path d="M11.8638 2.5527C11.2606 6.606 8.3057 6.6003 7.68855 2.5527C7.50845 1.3974 5.51641 1.3974 5.69651 2.5527C5.91521 3.8436 6.17413 5.2809 6.45281 6.7296C6.55247 7.2483 6.55356 7.797 6.44321 8.3097C5.99258 10.4067 4.31146 10.3206 3.92643 8.1882C3.59031 6.3267 3.28591 4.458 2.98422 2.5527C2.80411 1.3974 0.823486 1.3974 0.992177 2.5527C2.00505 8.3478 3.72693 16.6023 4.48106 18.093C4.79616 18.6519 5.39265 18.6519 5.69651 18.093C6.59016 16.1907 8.24228 16.2417 9.17416 18.093C9.48926 18.6519 10.0857 18.6519 10.3896 18.093C11.1323 16.6023 12.8767 8.3478 13.8671 2.5527C14.0584 1.4346 12.0551 1.3974 11.8638 2.5527ZM21.7113 15.5589C21.5876 15.6519 21.475 15.6705 21.3737 15.6705C21.0699 15.6705 20.9122 15.2793 20.9122 14.2173V10.9935C20.9122 7.3041 19.6856 6.0372 17.7611 6.0372C16.1742 6.0372 15.2402 6.5589 14.5761 7.4718C14.0584 8.1612 14.1709 10.1178 14.6998 9.5589C15.3527 8.9439 16.2193 8.4966 17.1983 8.4966C18.5151 8.4966 19.0666 9.22351 19.0666 11.385C19.0666 11.4447 19.0286 11.4834 18.9959 11.4579C18.5125 11.0811 17.8035 10.8444 16.8495 10.8444C15.1613 10.8444 14.0697 12.354 14.0697 14.6832C14.0697 16.9935 15.0938 18.4842 16.6694 18.4842C17.092 18.4842 17.4708 18.3966 17.8073 18.249C18.5783 17.9112 19.7321 18.4284 20.5296 18.4284C20.9122 18.4284 21.3174 18.2607 21.7113 17.9997C22.3979 17.5155 22.3979 15.1488 21.7113 15.5589ZM17.1759 16.062C16.2643 16.062 15.9379 15.354 15.9379 14.6085C15.9379 13.8258 16.298 13.0806 17.2771 13.0806C17.9262 13.0806 18.4154 13.2129 18.745 13.4169C18.9601 13.5498 19.0666 13.9185 19.0666 14.2986C19.0666 14.5833 19.0095 14.8647 18.8814 15.054C18.5479 15.5475 17.9793 16.062 17.1759 16.062ZM21.7901 6.80101C22.6905 11.124 24.5249 17.2545 25.1326 18.1488C25.4365 18.5589 25.9993 18.5589 26.3144 18.1488C26.9333 17.2545 28.7565 11.124 29.6568 6.80101C29.8594 5.83201 27.8561 5.88811 27.6873 6.80101C27.0482 10.2753 24.4129 10.2621 23.7483 6.80101C23.5908 5.88811 21.5876 5.83201 21.7901 6.80101ZM37.2534 11.3664C37.2534 7.9191 36.1055 6.0372 33.7984 6.0372C31.4012 6.0372 30.1633 8.4408 30.1633 12.1674C30.1633 16.6023 32.099 18.4656 34.0348 18.4656C34.9238 18.4656 35.7567 18.0744 36.477 17.3103C36.9158 16.8444 36.9158 14.7018 36.3418 15.1302C35.5315 15.7266 34.8451 16.062 34.1811 16.062C33.575 16.062 32.9928 15.792 32.5855 15.2424C32.0491 14.5188 32.6563 13.4718 33.3483 13.4718C35.3289 13.4718 37.2534 12.5961 37.2534 11.3664ZM33.2358 11.2359C32.5583 11.2359 31.9745 10.1529 32.4106 9.2949C32.7426 8.6421 33.2753 8.3664 33.8772 8.3664C34.9801 8.3664 35.5654 9.2235 35.5654 10.509C35.5654 10.9005 34.5413 11.2359 33.2358 11.2359ZM43.5671 15.1488C42.0929 16.5651 41.2038 16.0806 41.2038 13.6395V13.3974C41.2038 11.1333 42.3123 9.2979 43.6796 9.2979C44.31 9.2979 44.31 6.6147 43.6796 6.6147H43.0606C42.0351 6.6147 41.2038 5.2383 41.2038 3.5403C41.2038 2.5527 39.7406 2.5527 39.6618 3.2979L39.4955 5.0502C39.4098 5.9511 38.941 6.6147 38.3902 6.6147C37.76 6.6147 37.76 9.2979 38.3902 9.2979C38.9186 9.2979 39.3467 10.0071 39.3467 10.8819V13.5279C39.3467 18.2979 41.5526 19.4718 43.5671 17.6271C44.1074 17.0868 44.0848 14.6832 43.5671 15.1488ZM49.8357 6.1488C49.0342 6.1854 48.3671 6.5322 47.8347 7.1112C47.4943 7.4817 46.9612 7.2699 46.8646 6.6147C46.7521 5.8881 45.2553 5.8695 45.2553 6.8571V17.7018C45.2553 18.7452 47.1121 18.7452 47.1121 17.7018V15.2739C47.1121 12.417 47.7746 9.2136 49.4981 9.0744C50.0496 9.0372 50.4209 6.1302 49.8357 6.1488ZM58.299 15.5589C58.1751 15.6519 58.0626 15.6705 57.9501 15.6705C57.6574 15.6705 57.5 15.2793 57.5 14.2173V10.9935C57.5 7.3041 56.2731 6.0372 54.3487 6.0372C52.7505 6.0372 51.8277 6.5589 51.1638 7.4718C50.6461 8.1612 50.7587 10.1178 51.2876 9.5589C51.9402 8.9439 52.8069 8.4966 53.7748 8.4966C55.1028 8.4966 55.6541 9.22351 55.6541 11.385C55.6541 11.4447 55.6163 11.4834 55.5837 11.4579C55.1002 11.0811 54.3912 10.8444 53.4371 10.8444C51.7489 10.8444 50.6574 12.354 50.6574 14.6832C50.6574 16.9935 51.6815 18.4842 53.257 18.4842C53.6795 18.4842 54.0586 18.3966 54.3949 18.249C55.1658 17.9112 56.3199 18.4284 57.1173 18.4284C57.5 18.4284 57.9051 18.2607 58.299 17.9997C58.9742 17.5155 58.9742 15.1488 58.299 15.5589ZM53.7636 16.062C52.8518 16.062 52.5142 15.354 52.5142 14.6085C52.5142 13.8258 52.8857 13.0806 53.8534 13.0806C54.5106 13.0806 55.0024 13.2129 55.3325 13.4169C55.5476 13.5498 55.6541 13.9185 55.6541 14.2986C55.6541 14.5833 55.5973 14.8647 55.469 15.054C55.1354 15.5475 54.567 16.062 53.7636 16.062ZM67.8764 15.7266C67.7412 15.8196 67.6287 15.8571 67.5162 15.8571C67.2011 15.8571 67.0434 15.4842 67.0434 14.739V13.77V10.4346C67.0434 7.69561 66.0869 6.0372 64.5113 6.0372C63.7354 6.0372 63.0017 6.378 62.3639 7.0524C62.0389 7.3959 61.569 7.2036 61.4502 6.5961C61.2925 5.8881 59.9084 5.81341 59.9084 6.80101V17.7018C59.9084 18.7452 61.754 18.7452 61.754 17.7018V14.3559C61.754 11.8752 62.2366 8.739 63.7348 8.739C64.6801 8.739 65.1978 9.5589 65.1978 11.4966V13.1736V15.2049C65.1978 17.739 65.828 18.5961 66.6497 18.5961C67.0434 18.5961 67.46 18.4098 67.8764 18.1488C68.5403 17.6832 68.5066 15.2049 67.8764 15.7266ZM71.14 9.61471C71.14 8.77621 71.8942 8.2917 72.8732 8.2917C73.6835 8.2917 74.6289 8.6271 75.4617 9.354C75.9344 9.801 75.8893 7.3413 75.428 6.9873C74.6514 6.354 73.6949 6.0372 72.7494 6.0372C70.9712 6.0372 69.2944 7.1736 69.2944 9.6894C69.2944 12.4284 71.0275 12.801 72.4006 13.1736C73.3122 13.3974 74.0774 13.6023 74.0774 14.5155C74.0774 15.5217 73.2671 16.062 72.243 16.062C71.4214 16.062 70.4762 15.7266 69.6657 14.9997C69.1592 14.6085 69.2381 17.1801 69.6771 17.5527C70.4535 18.1488 71.4551 18.4842 72.4343 18.4842C74.2125 18.4842 75.912 17.3103 75.912 14.5713C75.912 11.5713 74.1674 11.2359 72.7831 10.9005C71.8829 10.6956 71.14 10.4718 71.14 9.61471ZM82.7432 1.509C82.113 0.875701 81.4828 0.596101 80.8751 0.596101C79.4458 0.596101 78.2753 2.1612 78.2753 5.5155C78.2753 6.1224 77.9779 6.6147 77.6112 6.6147H77.3188C76.6884 6.6147 76.6884 9.2979 77.3188 9.2979C77.8469 9.2979 78.2753 10.0071 78.2753 10.8819V17.7018C78.2753 18.7452 80.1436 18.7452 80.1436 17.7018V11.2173C80.1436 10.1571 80.6625 9.2979 81.3027 9.2979C82.0456 9.2979 82.8444 6.6147 82.113 6.6147H80.7513C80.4155 6.6147 80.1436 6.1641 80.1436 5.6085C80.1436 3.9501 80.4811 3.1302 81.1452 3.1302C81.5616 3.1302 82.0905 3.4098 82.7432 4.0434C83.261 4.5279 83.2947 2.031 82.7432 1.509ZM90.0136 11.3664C90.0136 7.9191 88.8655 6.0372 86.5696 6.0372C84.1726 6.0372 82.9233 8.4408 82.9233 12.1674C82.9233 16.6023 84.8704 18.4656 86.8061 18.4656C87.6839 18.4656 88.5167 18.0744 89.2482 17.3103C89.687 16.8444 89.687 14.7018 89.102 15.1302C88.3029 15.7266 87.6051 16.062 86.941 16.062C86.3321 16.062 85.747 15.7893 85.3413 15.2343C84.8113 14.5089 85.4206 13.4718 86.1083 13.4718C88.1003 13.4718 90.0136 12.5961 90.0136 11.3664ZM85.9958 11.2359C85.3205 11.2359 84.741 10.152 85.1755 9.2964C85.5076 8.6424 86.0394 8.3664 86.6484 8.3664C87.7513 8.3664 88.3366 9.2235 88.3366 10.509C88.3366 10.9005 87.3125 11.2359 85.9958 11.2359ZM95.6856 6.1488C94.884 6.1854 94.2171 6.5322 93.6845 7.1112C93.3441 7.4817 92.8112 7.2699 92.7144 6.6147C92.6019 5.8881 91.1051 5.8695 91.1051 6.8571V17.7018C91.1051 18.7452 92.9621 18.7452 92.9621 17.7018V15.2739C92.9621 12.417 93.6246 9.2136 95.3481 9.0744C95.8994 9.0372 96.2709 6.1302 95.6856 6.1488Z" fill="url(#paint0_linear)"/>
<defs>
<linearGradient id="paint0_linear" x1="11.7563" y1="-29.8572" x2="108.874" y2="-2.50505" gradientUnits="userSpaceOnUse">
<stop stop-color="#FFD005"/>
<stop offset="1" stop-color="#FFD005"/>
</linearGradient>
</defs>
</svg>
