<svg width="122" height="122" viewBox="0 0 122 122" fill="none" xmlns="http://www.w3.org/2000/svg">
<circle cx="61" cy="61" r="61" fill="#C7CBEE"/>
<path d="M91.6413 49.7978C91.4769 49.7031 91.2904 49.6536 91.1006 49.6544H80.0666V33.1034C80.0666 32.8108 79.9504 32.5301 79.7434 32.3232C79.5365 32.1163 79.2559 32 78.9632 32H39.2408C38.9482 32 38.6675 32.1163 38.4606 32.3232C38.2537 32.5301 38.1374 32.8108 38.1374 33.1034V49.6544H27.1034C26.9137 49.6536 26.7271 49.7031 26.5627 49.7978C26.3923 49.8936 26.2504 50.033 26.1515 50.2017C26.0526 50.3704 26.0003 50.5623 26 50.7578V86.0666C26 86.3592 26.1163 86.6399 26.3232 86.8468C26.5301 87.0537 26.8108 87.17 27.1034 87.17H91.1006C91.3933 87.17 91.6739 87.0537 91.8808 86.8468C92.0878 86.6399 92.204 86.3592 92.204 86.0666V50.7578C92.2037 50.5623 92.1514 50.3704 92.0525 50.2017C91.9536 50.033 91.8117 49.8936 91.6413 49.7978ZM80.0666 51.8612H87.2277L80.0666 56.3079V51.8612ZM40.3442 34.2068H77.8598V57.6761L76.7564 58.3602V37.517C76.7564 37.2244 76.6402 36.9437 76.4332 36.7368C76.2263 36.5299 75.9457 36.4136 75.653 36.4136H69.0326V38.6204H74.5496V59.7284L60.8454 68.2357C60.3237 68.5654 59.7192 68.7405 59.102 68.7405C58.4848 68.7405 57.8803 68.5654 57.3586 68.2357L43.6544 59.7284V38.6204H49.1714V36.4136H42.551C42.2584 36.4136 41.9777 36.5299 41.7708 36.7368C41.5639 36.9437 41.4476 37.2244 41.4476 37.517V58.3602L40.3442 57.6761V34.2068ZM38.1374 51.8612V56.3079L30.9763 51.8612H38.1374ZM89.9972 84.9632H28.2068V52.7439L56.189 70.1114C57.0625 70.6577 58.0719 70.9473 59.102 70.9473C60.1322 70.9473 61.1416 70.6577 62.015 70.1114L89.9972 52.7439V84.9632Z" fill="#4553C7"/>
<path d="M59.1006 36.4135C56.2635 36.4135 53.4902 37.2547 51.1313 38.8309C48.7725 40.407 46.9339 42.6473 45.8482 45.2684C44.7626 47.8894 44.4785 50.7736 45.032 53.5561C45.5854 56.3386 46.9516 58.8945 48.9577 60.9005C50.9637 62.9066 53.5196 64.2728 56.3021 64.8262C59.0846 65.3797 61.9688 65.0956 64.5898 64.01C67.2109 62.9243 69.4512 61.0858 71.0273 58.7269C72.6035 56.368 73.4448 53.5947 73.4448 50.7577C73.4413 46.9544 71.9289 43.3079 69.2396 40.6186C66.5503 37.9293 62.9038 36.417 59.1006 36.4135ZM59.1006 62.8951C56.7 62.8951 54.3534 62.1832 52.3574 60.8495C50.3614 59.5159 48.8057 57.6203 47.8871 55.4024C46.9684 53.1846 46.728 50.7442 47.1964 48.3898C47.6647 46.0353 48.8207 43.8727 50.5181 42.1752C52.2156 40.4778 54.3782 39.3218 56.7327 38.8535C59.0871 38.3851 61.5275 38.6255 63.7453 39.5442C65.9632 40.4628 67.8588 42.0185 69.1924 44.0145C70.5261 46.0105 71.238 48.3571 71.238 50.7577C71.2359 53.9761 69.9565 57.0621 67.6807 59.3378C65.405 61.6136 62.319 62.893 59.1006 62.8951Z" fill="#4553C7"/>
<path d="M53.837 58V53.3207H52V52.1555H53.837V50.6625H52V49.4972H53.837V45H56.2862L58.5236 49.4972H61.3025V45H63.163V49.4972H65V50.6625H63.163V52.1555H65V53.3207H63.163V58H60.6902L58.4529 53.3207H55.6739V58H53.837ZM55.6268 49.4972H56.6159L55.6268 47.2395H55.5326L55.6268 49.4972ZM55.6739 52.1555H57.8877L57.1812 50.6625H55.6268L55.6739 52.1555ZM59.7717 52.1555H61.3496L61.3025 50.6625H59.0652L59.7717 52.1555ZM61.3025 55.4328H61.3967L61.3261 53.3207H60.337L61.3025 55.4328Z" fill="#4553C7"/>
</svg>
